<?xml version="1.0" encoding="UTF-8" standalone="no"?>
<svg
   xmlns:dc="http://purl.org/dc/elements/1.1/"
   xmlns:cc="http://creativecommons.org/ns#"
   xmlns:rdf="http://www.w3.org/1999/02/22-rdf-syntax-ns#"
   xmlns:svg="http://www.w3.org/2000/svg"
   xmlns="http://www.w3.org/2000/svg"
   xmlns:xlink="http://www.w3.org/1999/xlink"
   xml:space="preserve"
   enable-background="new 0 0 728.504 960.974"
   viewBox="0 0 960.97396 728.50403"
   height="728.50403"
   width="960.974"
   y="0px"
   x="0px"
   id="color"
   version="1.1"><metadata
     id="metadata3247"><rdf:RDF><cc:Work
         rdf:about=""><dc:format>image/svg+xml</dc:format><dc:type
           rdf:resource="http://purl.org/dc/dcmitype/StillImage" /><dc:title></dc:title></cc:Work></rdf:RDF></metadata><defs
     id="defs3245" /><symbol
     transform="translate(0,-232.46997)"
     viewBox="-115.328 -114.882 230.656 229.764"
     id="Euro"><g
       style="display:none"
       id="g4"
       display="none"><g
         style="display:inline"
         id="g6"
         display="inline"><path
           style="fill:#475974"
           id="path8"
           d="m -74.438,-50.84 -21.803,-12.645 c 19.436,-29.333 51.952,-49.236 89.23,-51.397 l 0,25.188 c -27.993,2.087 -52.412,16.987 -67.427,38.854 z" /><path
           style="fill:#475974"
           id="path10"
           d="m -90.181,-0.002 c 0,14.027 3.211,27.302 8.939,39.134 l -21.803,12.644 c -7.854,-15.563 -12.283,-33.15 -12.283,-51.771 0,-18.623 4.43,-36.208 12.283,-51.771 l 21.803,12.638 c -5.728,11.823 -8.939,25.101 -8.939,39.126 z" /><path
           style="fill:#475974"
           id="path12"
           d="m -74.438,50.836 c 15.015,21.867 39.434,36.768 67.428,38.852 l 0,25.19 C -44.288,112.714 -76.805,92.804 -96.24,63.472 l 21.802,-12.636 z" /></g><g
         style="display:inline"
         id="g14"
         display="inline"><path
           style="fill:#475974"
           id="path16"
           d="m 74.44,50.836 21.803,12.642 c -19.437,29.33 -51.949,49.24 -89.23,51.404 l 0,-25.194 C 35.006,87.603 59.429,72.702 74.44,50.836 Z" /><path
           style="fill:#475974"
           id="path18"
           d="m 90.183,-0.002 c 0,-14.025 -3.211,-27.301 -8.938,-39.134 l 21.801,-12.643 c 7.853,15.563 12.282,33.149 12.282,51.771 0,18.622 -4.43,36.209 -12.282,51.771 l -21.8,-12.637 c 5.726,-11.825 8.937,-25.101 8.937,-39.128 z" /><path
           style="fill:#475974"
           id="path20"
           d="M 74.44,-50.84 C 59.429,-72.707 35.006,-87.608 7.013,-89.69 l 0,-25.188 c 37.281,2.161 69.794,22.071 89.23,51.403 L 74.44,-50.84 Z" /></g></g><g
       id="g22"><path
         style="fill:#475974"
         id="path24"
         d="m 0,-112.298 c -61.921,0 -112.297,50.376 -112.297,112.298 0,61.921 50.376,112.297 112.297,112.297 C 61.921,112.297 112.297,61.921 112.297,0 112.297,-61.921 61.921,-112.298 0,-112.298 Z M 0,94.297 c -51.995,0 -94.297,-42.301 -94.297,-94.297 0,-51.996 42.302,-94.298 94.297,-94.298 51.995,0 94.297,42.302 94.297,94.298 0,51.996 -42.3,94.297 -94.297,94.297 z" /></g><g
       id="g26"><path
         style="fill:#475974"
         id="path28"
         d="m -28.056,20.214 c 0.154,0.251 3.822,2.568 4.703,2.688 0.881,0.12 14.709,-1.458 15.163,-1.564 0.457,-0.109 2.21,-0.854 2.379,-1.021 0.172,-0.165 1.612,-2.449 1.591,-2.677 -0.013,-0.222 -0.848,-1.98 -1.011,-2.054 -0.163,-0.074 -9.452,0.5 -9.535,0.426 -0.079,-0.065 -0.88,-1.887 -0.856,-1.958 0.025,-0.064 10.244,-0.474 10.48,-0.587 0.225,-0.104 2.183,-3.015 2.205,-3.144 C -2.919,10.19 -3.591,7.284 -3.689,7.158 -3.791,7.03 -5.443,6.452 -5.695,6.452 c -0.248,0 -9.977,1.876 -10.06,1.798 -0.083,-0.075 -0.562,-2.167 -0.53,-2.235 0.033,-0.063 9.859,-1.546 10.016,-1.719 0.154,-0.176 0.568,-2.045 0.565,-2.298 0,-0.254 -0.353,-2.396 -0.495,-2.636 -0.137,-0.242 -1.199,-1.188 -1.47,-1.229 -0.267,-0.037 -8.829,1.799 -8.899,1.724 -0.07,-0.08 -0.52,-2.438 -0.467,-2.517 0.059,-0.076 9.289,-1.288 9.363,-1.435 0.074,-0.147 -0.547,-2.622 -0.65,-2.729 -0.102,-0.106 -1.018,-0.668 -1.29,-0.745 -0.271,-0.07 -13.929,0.077 -14.186,0.157 -0.261,0.081 -3.126,1.866 -3.243,2.081 -0.115,0.218 0.041,3.736 -0.048,3.947 -0.088,0.21 -2.774,2.604 -2.928,2.854 -0.147,0.249 -0.66,1.731 -0.623,2.053 0.03,0.315 1.875,3.978 1.866,4.272 -0.013,0.304 -2.321,3.438 -2.349,3.645 -0.027,0.199 0.473,1.521 0.626,1.813 0.157,0.291 2.407,2.563 2.49,2.838 0.08,0.28 -0.065,1.423 -0.071,1.692 -0.007,0.271 -0.129,2.182 0.022,2.431 z" /><path
         style="fill:#475974"
         id="path30"
         d="m -4.638,23.652 c -0.15,-0.083 -0.611,-2.096 -0.593,-2.223 0.019,-0.128 1.802,-2.745 1.82,-2.876 0.024,-0.132 -0.62,-3.771 -0.602,-3.922 0.021,-0.146 1.931,-4.013 2.045,-4.089 0.113,-0.077 2.378,-0.579 2.499,-0.528 0.119,0.059 1.219,1.526 1.277,1.8 0.072,0.322 -1.213,8.931 -1.425,9.188 -0.211,0.255 -4.875,2.737 -5.021,2.65 z" /></g><g
       id="g32"><path
         style="fill:#475974"
         id="path34"
         d="m 27.142,-3.866 c -0.156,0.247 -3.896,2.453 -4.776,2.547 -0.882,0.1 -14.659,-1.89 -15.11,-2.013 C 6.802,-3.457 5.071,-4.255 4.907,-4.427 4.737,-4.6 3.369,-6.923 3.394,-7.144 3.412,-7.37 4.296,-9.102 4.462,-9.166 c 0.168,-0.066 9.437,0.776 9.52,0.706 0.082,-0.071 0.936,-1.862 0.918,-1.935 -0.025,-0.068 -10.226,-0.773 -10.463,-0.896 -0.221,-0.113 -2.09,-3.079 -2.109,-3.209 -0.018,-0.128 0.74,-3.017 0.842,-3.142 0.111,-0.122 1.774,-0.652 2.026,-0.646 0.249,0.008 9.919,2.167 10.005,2.094 0.082,-0.069 0.627,-2.146 0.596,-2.217 -0.031,-0.063 -9.813,-1.837 -9.959,-2.017 -0.15,-0.187 -0.514,-2.063 -0.501,-2.313 0.009,-0.256 0.421,-2.385 0.571,-2.623 0.145,-0.233 1.234,-1.146 1.504,-1.179 0.268,-0.027 8.773,2.057 8.848,1.979 0.074,-0.074 0.59,-2.421 0.537,-2.5 -0.055,-0.073 -9.243,-1.559 -9.314,-1.711 -0.07,-0.146 0.624,-2.604 0.729,-2.707 0.104,-0.104 1.037,-0.638 1.311,-0.702 0.275,-0.066 13.922,0.48 14.18,0.569 0.255,0.087 3.067,1.957 3.178,2.181 0.111,0.218 -0.15,3.729 -0.067,3.938 0.083,0.209 2.694,2.688 2.843,2.943 0.141,0.255 0.607,1.751 0.564,2.063 -0.043,0.318 -1.992,3.917 -1.992,4.229 0,0.3 2.22,3.497 2.241,3.696 0.019,0.207 -0.517,1.519 -0.682,1.804 -0.163,0.288 -2.48,2.485 -2.569,2.765 -0.09,0.276 0.021,1.424 0.021,1.695 0.001,0.277 0.062,2.188 -0.098,2.435 z" /><path
         style="fill:#475974"
         id="path36"
         d="M 3.179,-1.193 C 3.329,-1.265 3.851,-3.258 3.835,-3.386 3.815,-3.52 2.568,-6.111 2.556,-6.243 2.54,-6.38 3.289,-9.999 3.273,-10.147 3.258,-10.293 1.459,-14.21 1.348,-14.293 c -0.107,-0.08 -2.361,-0.646 -2.48,-0.604 -0.12,0.056 -1.262,1.494 -1.329,1.763 -0.083,0.322 0.948,8.964 1.153,9.224 0.207,0.259 4.336,2.8 4.487,2.717 z" /></g><g
       id="g38"><path
         style="fill:#e2001a"
         id="path40"
         d="m 19.99,62.305 0,13.75 -13.432,5.756 0,-16.84 C 4.4,65.179 2.213,65.285 0,65.285 c -2.141,0 -4.255,-0.104 -6.343,-0.294 l 0,11.063 -13.434,5.756 0,-19.44 c -27.56,-8.358 -47.597,-33.721 -47.597,-63.711 0,-17.694 6.92,-33.727 18.303,-45.651 0.918,-0.052 23.449,0.668 23.449,0.668 -14.97,9.063 -25.015,25.813 -25.015,44.983 0,21.564 12.723,40.082 30.859,48.014 l 0,-22.72 9.434,-0.763 4,-0.697 0,27.888 c 2.079,0.271 4.194,0.42 6.343,0.42 2.225,0 4.411,-0.163 6.557,-0.45 l 0,-52.562 13.432,2.027 0,46.757 c 18.026,-7.982 30.65,-26.434 30.65,-47.916 0,-17.426 -8.302,-32.854 -21.054,-42.323 L 30.17,-47 l 18.897,0 c 11.354,11.925 18.308,27.989 18.308,45.658 0,29.918 -19.938,55.225 -47.385,63.647 z" /><path
         style="fill:#e2001a"
         id="path42"
         d="m 22.362,-61.389 c -2.957,2.879 -7.076,7.562 -9.582,13.297 -2.646,6.058 -3.143,13.349 -3.189,14.162 l 13.514,0.798 -6.756,-0.398 6.756,0.41 c 0.099,-1.553 0.66,-6.299 2.082,-9.552 2.671,-6.114 8.894,-11.043 8.958,-11.094 0,0 -7.099,-4.617 -11.783,-7.623 z" /><path
         style="fill:#e2001a"
         id="path44"
         d="m -34.252,-29.694 c 0.046,0.037 6.148,5.116 8.669,11.289 1.356,3.315 1.802,8.156 1.852,9.589 l 13.534,-0.473 c -0.03,-0.813 -0.349,-8.117 -2.851,-14.237 -3.173,-7.763 -9.287,-13.709 -11.709,-15.854 -2.903,3.002 -9.495,9.686 -9.495,9.686 z" /></g></symbol><symbol
     transform="translate(0,-232.46997)"
     viewBox="-115.328 -114.883 230.656 229.765"
     id="Euro_1"><g
       style="display:none"
       id="g47"
       display="none"><g
         style="display:inline"
         id="g49"
         display="inline"><path
           style="fill:#ffffff"
           id="path51"
           d="m -74.438,-50.841 -21.803,-12.643 c 19.436,-29.333 51.952,-49.238 89.229,-51.399 l 0,25.188 c -27.992,2.089 -52.412,16.988 -67.426,38.854 z" /><path
           style="fill:#ffffff"
           id="path53"
           d="m -90.181,-0.002 c 0,14.027 3.211,27.302 8.939,39.134 l -21.803,12.642 c -7.854,-15.564 -12.283,-33.15 -12.283,-51.772 0,-18.622 4.43,-36.208 12.283,-51.771 l 21.803,12.641 c -5.728,11.823 -8.939,25.101 -8.939,39.126 z" /><path
           style="fill:#ffffff"
           id="path55"
           d="m -74.438,50.835 c 15.015,21.867 39.434,36.769 67.428,38.852 l 0,25.195 C -44.288,112.718 -76.805,92.808 -96.239,63.476 l 21.801,-12.641 z" /></g><g
         style="display:inline"
         id="g57"
         display="inline"><path
           style="fill:#ffffff"
           id="path59"
           d="m 74.44,50.835 21.803,12.643 c -19.437,29.33 -51.949,49.24 -89.23,51.404 l 0,-25.195 C 35.006,87.604 59.429,72.702 74.44,50.835 Z" /><path
           style="fill:#ffffff"
           id="path61"
           d="m 90.183,-0.002 c 0,-14.025 -3.211,-27.303 -8.938,-39.134 l 21.801,-12.642 c 7.853,15.563 12.282,33.149 12.282,51.771 0,18.622 -4.43,36.21 -12.282,51.771 l -21.8,-12.636 c 5.726,-11.826 8.937,-25.102 8.937,-39.13 z" /><path
           style="fill:#ffffff"
           id="path63"
           d="M 74.44,-50.841 C 59.429,-72.707 35.006,-87.609 7.013,-89.691 l 0,-25.188 c 37.281,2.161 69.794,22.071 89.23,51.403 L 74.44,-50.841 Z" /></g></g><g
       id="g65"><path
         style="fill:#475974"
         id="path67"
         d="m 0,-112.298 c -61.92,0 -112.296,50.377 -112.296,112.298 0,61.921 50.376,112.297 112.296,112.297 C 61.92,112.297 112.297,61.921 112.297,0 112.297,-61.921 61.921,-112.298 0,-112.298 Z M 0,94.297 c -51.995,0 -94.297,-42.302 -94.297,-94.297 0,-51.996 42.302,-94.298 94.297,-94.298 51.995,0 94.297,42.302 94.297,94.298 0,51.995 -42.3,94.297 -94.297,94.297 z" /></g><g
       id="g69"><path
         style="fill:#ffffff"
         id="path71"
         d="m -28.056,20.214 c 0.154,0.251 3.822,2.567 4.703,2.688 0.881,0.116 14.709,-1.459 15.163,-1.565 0.457,-0.108 2.21,-0.856 2.379,-1.023 0.172,-0.165 1.612,-2.448 1.591,-2.674 -0.013,-0.223 -0.848,-1.981 -1.011,-2.054 -0.163,-0.073 -9.452,0.5 -9.535,0.427 -0.079,-0.067 -0.88,-1.888 -0.856,-1.959 0.025,-0.065 10.244,-0.474 10.48,-0.588 0.225,-0.104 2.183,-3.015 2.205,-3.144 C -2.919,10.186 -3.591,7.283 -3.689,7.156 -3.791,7.029 -5.443,6.45 -5.695,6.45 c -0.248,0 -9.977,1.877 -10.06,1.799 -0.083,-0.075 -0.562,-2.168 -0.53,-2.235 0.033,-0.063 9.859,-1.546 10.016,-1.72 0.154,-0.176 0.568,-2.045 0.565,-2.297 0,-0.255 -0.353,-2.396 -0.495,-2.637 -0.137,-0.242 -1.199,-1.188 -1.47,-1.229 -0.267,-0.037 -8.829,1.799 -8.899,1.719 -0.07,-0.076 -0.52,-2.436 -0.467,-2.512 0.059,-0.076 9.289,-1.287 9.363,-1.437 0.074,-0.146 -0.547,-2.62 -0.65,-2.729 -0.102,-0.108 -1.018,-0.668 -1.29,-0.745 -0.271,-0.072 -13.929,0.077 -14.186,0.157 -0.261,0.081 -3.126,1.865 -3.243,2.081 -0.115,0.22 0.041,3.737 -0.048,3.947 -0.088,0.212 -2.774,2.604 -2.928,2.855 -0.147,0.249 -0.66,1.731 -0.623,2.048 0.03,0.32 1.875,3.979 1.866,4.277 -0.013,0.305 -2.321,3.438 -2.349,3.641 -0.027,0.203 0.473,1.525 0.626,1.816 0.157,0.291 2.407,2.559 2.49,2.838 0.08,0.28 -0.065,1.423 -0.071,1.691 -0.007,0.276 -0.129,2.187 0.022,2.436 z" /><path
         style="fill:#ffffff"
         id="path73"
         d="m -4.638,23.653 c -0.15,-0.084 -0.611,-2.095 -0.593,-2.222 0.018,-0.127 1.802,-2.743 1.82,-2.876 0.024,-0.132 -0.62,-3.772 -0.602,-3.922 0.021,-0.146 1.931,-4.013 2.045,-4.089 0.113,-0.078 2.378,-0.579 2.499,-0.529 0.119,0.057 1.219,1.527 1.277,1.798 0.072,0.324 -1.213,8.931 -1.425,9.188 -0.211,0.256 -4.875,2.738 -5.021,2.652 z" /></g><g
       id="g75"><path
         style="fill:#ffffff"
         id="path77"
         d="m 27.142,-3.866 c -0.156,0.248 -3.896,2.453 -4.776,2.547 C 21.484,-1.22 7.707,-3.209 7.256,-3.331 6.802,-3.456 5.071,-4.255 4.907,-4.427 4.737,-4.6 3.369,-6.922 3.394,-7.144 3.412,-7.37 4.296,-9.102 4.462,-9.166 c 0.168,-0.065 9.437,0.775 9.52,0.706 0.082,-0.07 0.936,-1.861 0.918,-1.935 -0.025,-0.068 -10.226,-0.773 -10.463,-0.896 -0.221,-0.113 -2.09,-3.078 -2.109,-3.209 -0.018,-0.127 0.74,-3.017 0.842,-3.142 0.111,-0.121 1.774,-0.651 2.026,-0.646 0.249,0.008 9.919,2.167 10.005,2.094 0.082,-0.071 0.627,-2.148 0.596,-2.217 -0.031,-0.065 -9.813,-1.837 -9.959,-2.017 -0.15,-0.185 -0.514,-2.063 -0.501,-2.313 0.009,-0.256 0.421,-2.386 0.571,-2.623 0.145,-0.235 1.234,-1.147 1.504,-1.18 0.268,-0.027 8.773,2.057 8.848,1.979 0.074,-0.075 0.59,-2.422 0.537,-2.501 -0.055,-0.074 -9.243,-1.558 -9.314,-1.711 -0.07,-0.146 0.624,-2.604 0.729,-2.709 0.104,-0.104 1.037,-0.635 1.311,-0.704 0.275,-0.063 13.922,0.485 14.18,0.573 0.255,0.088 3.067,1.957 3.178,2.18 0.111,0.218 -0.15,3.729 -0.067,3.939 0.083,0.21 2.694,2.688 2.843,2.942 0.141,0.255 0.607,1.751 0.564,2.063 -0.043,0.318 -1.992,3.918 -1.992,4.227 0,0.301 2.22,3.497 2.241,3.698 0.019,0.207 -0.517,1.518 -0.682,1.803 -0.163,0.288 -2.48,2.486 -2.569,2.765 -0.09,0.28 0.021,1.428 0.021,1.699 0.001,0.277 0.062,2.189 -0.098,2.435 z" /><path
         style="fill:#ffffff"
         id="path79"
         d="M 3.179,-1.193 C 3.329,-1.267 3.851,-3.26 3.835,-3.388 3.816,-3.52 2.569,-6.111 2.556,-6.243 2.54,-6.38 3.289,-9.999 3.273,-10.147 c -0.015,-0.145 -1.814,-4.064 -1.925,-4.146 -0.107,-0.08 -2.361,-0.646 -2.48,-0.604 -0.12,0.054 -1.262,1.494 -1.329,1.761 -0.083,0.324 0.948,8.967 1.153,9.227 0.207,0.258 4.336,2.799 4.487,2.716 z" /></g><g
       id="g81"><path
         style="fill:#e2001a"
         id="path83"
         d="m 19.99,62.305 0,13.75 -13.432,5.757 0,-16.841 C 4.4,65.179 2.213,65.285 0,65.285 c -2.141,0 -4.255,-0.104 -6.343,-0.294 l 0,11.063 -13.434,5.757 0,-19.442 c -27.56,-8.358 -47.597,-33.721 -47.597,-63.712 0,-17.693 6.92,-33.725 18.303,-45.65 0.918,-0.053 23.449,0.668 23.449,0.668 -14.97,9.06 -25.015,25.813 -25.015,44.982 0,21.566 12.723,40.082 30.859,48.014 l 0,-22.719 9.434,-0.763 4,-0.697 0,27.888 c 2.079,0.266 4.195,0.42 6.344,0.42 2.225,0 4.411,-0.162 6.557,-0.449 l 0,-52.563 13.432,2.027 0,46.758 c 18.026,-7.982 30.65,-26.432 30.65,-47.916 0,-17.425 -8.302,-32.854 -21.054,-42.322 L 30.17,-47 l 18.897,0 c 11.354,11.925 18.308,27.989 18.308,45.657 0,29.918 -19.938,55.225 -47.385,63.648 z" /><path
         style="fill:#e2001a"
         id="path85"
         d="m 22.362,-61.388 c -2.957,2.878 -7.076,7.562 -9.582,13.296 -2.646,6.059 -3.143,13.35 -3.189,14.162 l 13.514,0.798 -6.756,-0.397 6.756,0.41 c 0.099,-1.554 0.66,-6.3 2.082,-9.553 2.671,-6.113 8.894,-11.043 8.958,-11.094 0,0 -7.099,-4.618 -11.783,-7.622 z" /><path
         style="fill:#e2001a"
         id="path87"
         d="m -34.252,-29.694 c 0.046,0.037 6.148,5.115 8.669,11.289 1.356,3.315 1.802,8.156 1.852,9.59 l 13.534,-0.473 c -0.03,-0.813 -0.349,-8.117 -2.852,-14.237 -3.173,-7.763 -9.287,-13.709 -11.709,-15.855 -2.901,3.002 -9.494,9.686 -9.494,9.686 z" /></g></symbol><symbol
     transform="translate(0,-232.46997)"
     viewBox="-115.328 -114.881 230.656 229.762"
     id="Euro_5"><g
       style="display:none"
       id="g90"
       display="none"><g
         style="display:inline"
         id="g92"
         display="inline"><path
           style="fill:#475974"
           id="path94"
           d="m -74.438,-50.841 -21.803,-12.641 c 19.436,-29.333 51.952,-49.238 89.229,-51.399 l 0,25.189 c -27.992,2.084 -52.412,16.984 -67.426,38.851 z" /><path
           style="fill:#475974"
           id="path96"
           d="m -90.181,-0.003 c 0,14.027 3.211,27.302 8.939,39.134 l -21.803,12.642 c -7.854,-15.563 -12.283,-33.15 -12.283,-51.772 0,-18.622 4.43,-36.208 12.283,-51.771 l 21.803,12.641 c -5.728,11.822 -8.939,25.1 -8.939,39.126 z" /><path
           style="fill:#475974"
           id="path98"
           d="m -74.438,50.835 c 15.015,21.867 39.434,36.768 67.428,38.851 l 0,25.195 C -44.288,112.717 -76.805,92.807 -96.239,63.475 l 21.801,-12.64 z" /></g><g
         style="display:inline"
         id="g100"
         display="inline"><path
           style="fill:#475974"
           id="path102"
           d="m 74.44,50.835 21.803,12.642 c -19.437,29.33 -51.949,49.24 -89.23,51.404 l 0,-25.195 C 35.006,87.603 59.429,72.701 74.44,50.835 Z" /><path
           style="fill:#475974"
           id="path104"
           d="m 90.183,-0.003 c 0,-14.025 -3.211,-27.301 -8.938,-39.134 l 21.801,-12.642 c 7.853,15.563 12.282,33.149 12.282,51.771 0,18.622 -4.43,36.21 -12.282,51.771 L 81.246,39.126 C 86.972,27.3 90.183,14.024 90.183,-0.003 Z" /><path
           style="fill:#475974"
           id="path106"
           d="M 74.44,-50.841 C 59.429,-72.708 35.006,-87.609 7.013,-89.691 l 0,-25.189 c 37.281,2.161 69.794,22.071 89.23,51.403 L 74.44,-50.841 Z" /></g></g><g
       id="g108"><path
         style="fill:#1d1d1b"
         id="path110"
         d="m 0,-112.298 c -61.92,0 -112.296,50.376 -112.296,112.297 0,61.921 50.376,112.297 112.296,112.297 61.92,0 112.297,-50.376 112.297,-112.297 C 112.297,-61.922 61.921,-112.298 0,-112.298 Z M 0,94.296 c -51.995,0 -94.297,-42.301 -94.297,-94.297 0,-51.996 42.303,-94.297 94.297,-94.297 51.995,0 94.297,42.301 94.297,94.297 0,51.996 -42.3,94.297 -94.297,94.297 z" /></g><g
       id="g112"><path
         style="fill:#1d1d1b"
         id="path114"
         d="m -28.056,20.213 c 0.154,0.251 3.822,2.568 4.703,2.688 0.881,0.117 14.709,-1.458 15.163,-1.564 0.457,-0.109 2.21,-0.857 2.379,-1.024 0.172,-0.165 1.612,-2.448 1.591,-2.674 -0.013,-0.222 -0.848,-1.982 -1.011,-2.054 -0.163,-0.072 -9.452,0.5 -9.535,0.427 -0.079,-0.067 -0.88,-1.888 -0.856,-1.958 0.025,-0.066 10.244,-0.475 10.48,-0.588 0.225,-0.104 2.183,-3.016 2.205,-3.144 0.018,-0.133 -0.654,-3.04 -0.752,-3.165 -0.102,-0.13 -1.753,-0.708 -2.005,-0.708 -0.248,0 -9.977,1.877 -10.06,1.798 -0.083,-0.075 -0.562,-2.167 -0.53,-2.235 0.033,-0.063 9.859,-1.545 10.016,-1.719 0.154,-0.176 0.568,-2.045 0.565,-2.298 0,-0.255 -0.353,-2.396 -0.495,-2.637 -0.137,-0.241 -1.199,-1.188 -1.47,-1.228 -0.267,-0.037 -8.829,1.799 -8.899,1.719 -0.07,-0.077 -0.52,-2.436 -0.467,-2.512 0.059,-0.076 9.289,-1.288 9.363,-1.436 0.074,-0.148 -0.547,-2.622 -0.65,-2.729 -0.102,-0.107 -1.018,-0.668 -1.29,-0.745 -0.271,-0.071 -13.93,0.078 -14.186,0.159 -0.261,0.08 -3.126,1.865 -3.243,2.08 -0.116,0.218 0.04,3.734 -0.049,3.946 -0.088,0.211 -2.774,2.604 -2.928,2.854 -0.147,0.25 -0.66,1.732 -0.623,2.049 0.03,0.32 1.875,3.979 1.866,4.277 -0.013,0.304 -2.321,3.438 -2.349,3.64 -0.028,0.204 0.473,1.525 0.626,1.817 0.157,0.291 2.407,2.56 2.49,2.838 0.08,0.279 -0.065,1.422 -0.071,1.691 -0.007,0.275 -0.129,2.186 0.022,2.435 z" /><path
         style="fill:#1d1d1b"
         id="path116"
         d="m -4.638,23.651 c -0.15,-0.083 -0.611,-2.094 -0.593,-2.221 0.019,-0.128 1.802,-2.747 1.82,-2.876 0.024,-0.132 -0.62,-3.772 -0.602,-3.922 0.021,-0.146 1.931,-4.013 2.045,-4.089 0.113,-0.077 2.378,-0.579 2.499,-0.528 0.119,0.057 1.219,1.526 1.277,1.798 0.072,0.323 -1.213,8.931 -1.425,9.188 -0.211,0.255 -4.875,2.737 -5.021,2.65 z" /></g><g
       id="g118"><path
         style="fill:#1d1d1b"
         id="path120"
         d="M 27.142,-3.867 C 26.986,-3.62 23.246,-1.414 22.366,-1.32 21.483,-1.225 7.707,-3.211 7.255,-3.333 6.802,-3.457 5.071,-4.256 4.907,-4.428 4.737,-4.601 3.369,-6.924 3.394,-7.146 c 0.018,-0.226 0.902,-1.958 1.068,-2.022 0.168,-0.065 9.437,0.776 9.52,0.707 0.082,-0.071 0.936,-1.862 0.918,-1.938 -0.025,-0.065 -10.226,-0.771 -10.463,-0.894 -0.221,-0.113 -2.09,-3.079 -2.109,-3.209 -0.018,-0.128 0.74,-3.017 0.842,-3.142 0.111,-0.123 1.774,-0.651 2.026,-0.646 0.249,0.008 9.919,2.166 10.005,2.094 0.082,-0.071 0.627,-2.148 0.596,-2.217 -0.031,-0.065 -9.813,-1.838 -9.959,-2.018 -0.15,-0.185 -0.514,-2.063 -0.501,-2.313 0.009,-0.256 0.421,-2.386 0.571,-2.623 0.145,-0.234 1.234,-1.147 1.504,-1.179 0.268,-0.027 8.773,2.057 8.848,1.979 0.074,-0.075 0.59,-2.422 0.537,-2.502 -0.055,-0.072 -9.243,-1.557 -9.314,-1.709 -0.07,-0.146 0.624,-2.604 0.729,-2.709 0.104,-0.104 1.037,-0.636 1.311,-0.704 0.275,-0.063 13.922,0.484 14.18,0.573 0.255,0.088 3.067,1.957 3.178,2.177 0.111,0.22 -0.15,3.729 -0.067,3.941 0.083,0.212 2.694,2.688 2.843,2.942 0.141,0.256 0.607,1.752 0.564,2.064 -0.043,0.317 -1.992,3.917 -1.992,4.227 0,0.301 2.22,3.496 2.241,3.697 0.019,0.206 -0.517,1.518 -0.682,1.803 -0.163,0.288 -2.48,2.486 -2.569,2.766 -0.09,0.275 0.021,1.424 0.021,1.694 0.001,0.282 0.062,2.193 -0.098,2.44 z" /><path
         style="fill:#1d1d1b"
         id="path122"
         d="M 3.179,-1.195 C 3.329,-1.268 3.851,-3.262 3.835,-3.389 3.815,-3.522 2.568,-6.113 2.556,-6.243 2.54,-6.38 3.289,-10 3.273,-10.147 c -0.015,-0.146 -1.814,-4.065 -1.925,-4.146 -0.107,-0.08 -2.361,-0.646 -2.48,-0.604 -0.12,0.054 -1.262,1.494 -1.329,1.761 -0.083,0.323 0.948,8.966 1.153,9.226 0.207,0.258 4.336,2.799 4.487,2.715 z" /></g><g
       id="g124"><path
         style="fill:#1d1d1b"
         id="path126"
         d="m 19.99,62.304 0,13.75 -13.432,5.756 0,-16.84 C 4.4,65.178 2.213,65.284 0,65.284 c -2.141,0 -4.255,-0.104 -6.343,-0.294 l 0,11.063 -13.434,5.756 0,-19.44 c -27.56,-8.358 -47.597,-33.721 -47.597,-63.711 0,-17.693 6.92,-33.725 18.303,-45.651 0.918,-0.052 23.449,0.668 23.449,0.668 -14.97,9.061 -25.015,25.813 -25.015,44.983 0,21.566 12.723,40.082 30.859,48.014 l 0,-22.72 9.434,-0.763 4,-0.697 0,27.888 c 2.079,0.27 4.194,0.42 6.343,0.42 2.225,0 4.411,-0.163 6.557,-0.45 l 0,-52.562 13.432,2.026 0,46.758 c 18.026,-7.982 30.65,-26.432 30.65,-47.916 0,-17.426 -8.302,-32.854 -21.054,-42.323 l 0.586,-3.335 18.897,0 c 11.354,11.926 18.308,27.988 18.308,45.658 0,29.919 -19.938,55.226 -47.385,63.648 z" /><path
         style="fill:#1d1d1b"
         id="path128"
         d="m 22.362,-61.39 c -2.957,2.879 -7.076,7.562 -9.582,13.297 -2.646,6.059 -3.143,13.35 -3.189,14.161 l 13.514,0.798 -6.755,-0.397 6.756,0.41 c 0.099,-1.554 0.66,-6.3 2.082,-9.552 2.671,-6.114 8.894,-11.043 8.958,-11.095 -10e-4,0 -7.1,-4.616 -11.784,-7.622 z" /><path
         style="fill:#1d1d1b"
         id="path130"
         d="m -34.252,-29.695 c 0.046,0.036 6.148,5.115 8.669,11.289 1.356,3.314 1.802,8.155 1.852,9.589 l 13.534,-0.473 c -0.03,-0.813 -0.349,-8.116 -2.852,-14.237 -3.173,-7.762 -9.287,-13.709 -11.709,-15.855 -2.901,3.004 -9.494,9.687 -9.494,9.687 z" /></g></symbol><symbol
     transform="translate(0,-232.46997)"
     viewBox="-115.328 -114.883 230.656 229.765"
     id="Euro_6"><g
       style="display:none"
       id="g133"
       display="none"><g
         style="display:inline"
         id="g135"
         display="inline"><path
           style="fill:#ffffff"
           id="path137"
           d="m -74.438,-50.841 -21.803,-12.643 c 19.436,-29.333 51.952,-49.238 89.229,-51.399 l 0,25.188 c -27.992,2.089 -52.412,16.988 -67.426,38.854 z" /><path
           style="fill:#ffffff"
           id="path139"
           d="m -90.181,-0.002 c 0,14.027 3.211,27.302 8.939,39.134 l -21.803,12.642 c -7.854,-15.564 -12.283,-33.15 -12.283,-51.772 0,-18.622 4.43,-36.208 12.283,-51.771 l 21.803,12.641 c -5.728,11.823 -8.939,25.101 -8.939,39.126 z" /><path
           style="fill:#ffffff"
           id="path141"
           d="m -74.438,50.835 c 15.015,21.867 39.434,36.769 67.428,38.852 l 0,25.195 C -44.288,112.718 -76.805,92.808 -96.239,63.476 l 21.801,-12.641 z" /></g><g
         style="display:inline"
         id="g143"
         display="inline"><path
           style="fill:#ffffff"
           id="path145"
           d="m 74.44,50.835 21.803,12.643 c -19.437,29.33 -51.949,49.24 -89.23,51.404 l 0,-25.195 C 35.006,87.604 59.429,72.702 74.44,50.835 Z" /><path
           style="fill:#ffffff"
           id="path147"
           d="m 90.183,-0.002 c 0,-14.025 -3.211,-27.303 -8.938,-39.134 l 21.801,-12.642 c 7.853,15.563 12.282,33.149 12.282,51.771 0,18.622 -4.43,36.21 -12.282,51.771 l -21.8,-12.636 c 5.726,-11.826 8.937,-25.102 8.937,-39.13 z" /><path
           style="fill:#ffffff"
           id="path149"
           d="M 74.44,-50.841 C 59.429,-72.707 35.006,-87.609 7.013,-89.691 l 0,-25.188 c 37.281,2.161 69.794,22.071 89.23,51.403 L 74.44,-50.841 Z" /></g></g><g
       id="g151"><path
         style="fill:#ffffff"
         id="path153"
         d="m 0,-112.298 c -61.92,0 -112.296,50.377 -112.296,112.298 0,61.921 50.376,112.297 112.296,112.297 C 61.92,112.297 112.297,61.921 112.297,0 112.297,-61.921 61.921,-112.298 0,-112.298 Z M 0,94.297 c -51.995,0 -94.297,-42.302 -94.297,-94.297 0,-51.996 42.302,-94.298 94.297,-94.298 51.995,0 94.297,42.302 94.297,94.298 0,51.995 -42.3,94.297 -94.297,94.297 z" /></g><g
       id="g155"><path
         style="fill:#ffffff"
         id="path157"
         d="m -28.056,20.214 c 0.154,0.251 3.822,2.567 4.703,2.688 0.881,0.116 14.709,-1.459 15.163,-1.565 0.457,-0.108 2.21,-0.856 2.379,-1.023 0.172,-0.165 1.612,-2.448 1.591,-2.674 -0.013,-0.223 -0.848,-1.981 -1.011,-2.054 -0.163,-0.073 -9.452,0.5 -9.535,0.427 -0.079,-0.067 -0.88,-1.888 -0.856,-1.959 0.025,-0.065 10.244,-0.474 10.48,-0.588 0.225,-0.104 2.183,-3.015 2.205,-3.144 C -2.919,10.186 -3.591,7.283 -3.689,7.156 -3.791,7.029 -5.443,6.45 -5.695,6.45 c -0.248,0 -9.977,1.877 -10.06,1.799 -0.083,-0.075 -0.562,-2.168 -0.53,-2.235 0.033,-0.063 9.859,-1.546 10.016,-1.72 0.154,-0.176 0.568,-2.045 0.565,-2.297 0,-0.255 -0.353,-2.396 -0.495,-2.637 -0.137,-0.242 -1.199,-1.188 -1.47,-1.229 -0.267,-0.037 -8.829,1.799 -8.899,1.719 -0.07,-0.076 -0.52,-2.436 -0.467,-2.512 0.059,-0.076 9.289,-1.287 9.363,-1.437 0.074,-0.146 -0.547,-2.62 -0.65,-2.729 -0.102,-0.108 -1.018,-0.668 -1.29,-0.745 -0.271,-0.072 -13.929,0.077 -14.186,0.157 -0.261,0.081 -3.126,1.865 -3.243,2.081 -0.115,0.22 0.041,3.737 -0.048,3.947 -0.088,0.212 -2.774,2.604 -2.928,2.855 -0.147,0.249 -0.66,1.731 -0.623,2.048 0.03,0.32 1.875,3.979 1.866,4.277 -0.013,0.305 -2.321,3.438 -2.349,3.641 -0.027,0.203 0.473,1.525 0.626,1.816 0.157,0.291 2.407,2.559 2.49,2.838 0.08,0.28 -0.065,1.423 -0.071,1.691 -0.007,0.276 -0.129,2.187 0.022,2.436 z" /><path
         style="fill:#ffffff"
         id="path159"
         d="m -4.638,23.653 c -0.15,-0.084 -0.611,-2.095 -0.593,-2.222 0.018,-0.127 1.802,-2.743 1.82,-2.876 0.024,-0.132 -0.62,-3.772 -0.602,-3.922 0.021,-0.146 1.931,-4.013 2.045,-4.089 0.113,-0.078 2.378,-0.579 2.499,-0.529 0.119,0.057 1.219,1.527 1.277,1.798 0.072,0.324 -1.213,8.931 -1.425,9.188 -0.211,0.256 -4.875,2.738 -5.021,2.652 z" /></g><g
       id="g161"><path
         style="fill:#ffffff"
         id="path163"
         d="m 27.142,-3.866 c -0.156,0.248 -3.896,2.453 -4.776,2.547 C 21.484,-1.22 7.707,-3.209 7.256,-3.331 6.802,-3.456 5.071,-4.255 4.907,-4.427 4.737,-4.6 3.369,-6.922 3.394,-7.144 3.412,-7.37 4.296,-9.102 4.462,-9.166 c 0.168,-0.065 9.437,0.775 9.52,0.706 0.082,-0.07 0.936,-1.861 0.918,-1.935 -0.025,-0.068 -10.226,-0.773 -10.463,-0.896 -0.221,-0.113 -2.09,-3.078 -2.109,-3.209 -0.018,-0.127 0.74,-3.017 0.842,-3.142 0.111,-0.121 1.774,-0.651 2.026,-0.646 0.249,0.008 9.919,2.167 10.005,2.094 0.082,-0.071 0.627,-2.148 0.596,-2.217 -0.031,-0.065 -9.813,-1.837 -9.959,-2.017 -0.15,-0.185 -0.514,-2.063 -0.501,-2.313 0.009,-0.256 0.421,-2.386 0.571,-2.623 0.145,-0.235 1.234,-1.147 1.504,-1.18 0.268,-0.027 8.773,2.057 8.848,1.979 0.074,-0.075 0.59,-2.422 0.537,-2.501 -0.055,-0.074 -9.243,-1.558 -9.314,-1.711 -0.07,-0.146 0.624,-2.604 0.729,-2.709 0.104,-0.104 1.037,-0.635 1.311,-0.704 0.275,-0.063 13.922,0.485 14.18,0.573 0.255,0.088 3.067,1.957 3.178,2.18 0.111,0.218 -0.15,3.729 -0.067,3.939 0.083,0.21 2.694,2.688 2.843,2.942 0.141,0.255 0.607,1.751 0.564,2.063 -0.043,0.318 -1.992,3.918 -1.992,4.227 0,0.301 2.22,3.497 2.241,3.698 0.019,0.207 -0.517,1.518 -0.682,1.803 -0.163,0.288 -2.48,2.486 -2.569,2.765 -0.09,0.28 0.021,1.428 0.021,1.699 0.001,0.277 0.062,2.189 -0.098,2.435 z" /><path
         style="fill:#ffffff"
         id="path165"
         d="M 3.179,-1.193 C 3.329,-1.267 3.851,-3.26 3.835,-3.388 3.816,-3.52 2.569,-6.111 2.556,-6.243 2.54,-6.38 3.289,-9.999 3.273,-10.147 c -0.015,-0.145 -1.814,-4.064 -1.925,-4.146 -0.107,-0.08 -2.361,-0.646 -2.48,-0.604 -0.12,0.054 -1.262,1.494 -1.329,1.761 -0.083,0.324 0.948,8.967 1.153,9.227 0.207,0.258 4.336,2.799 4.487,2.716 z" /></g><g
       id="g167"><path
         style="fill:#ffffff"
         id="path169"
         d="m 19.99,62.305 0,13.75 -13.432,5.757 0,-16.841 C 4.4,65.179 2.213,65.285 0,65.285 c -2.141,0 -4.255,-0.104 -6.343,-0.294 l 0,11.063 -13.434,5.757 0,-19.442 c -27.56,-8.358 -47.597,-33.721 -47.597,-63.712 0,-17.693 6.92,-33.725 18.303,-45.65 0.918,-0.053 23.449,0.668 23.449,0.668 -14.97,9.06 -25.015,25.813 -25.015,44.982 0,21.566 12.723,40.082 30.859,48.014 l 0,-22.719 9.434,-0.763 4,-0.697 0,27.888 c 2.079,0.266 4.195,0.42 6.344,0.42 2.225,0 4.411,-0.162 6.557,-0.449 l 0,-52.563 13.432,2.027 0,46.758 c 18.026,-7.982 30.65,-26.432 30.65,-47.916 0,-17.425 -8.302,-32.854 -21.054,-42.322 L 30.17,-47 l 18.897,0 c 11.354,11.925 18.308,27.989 18.308,45.657 0,29.918 -19.938,55.225 -47.385,63.648 z" /><path
         style="fill:#ffffff"
         id="path171"
         d="m 22.362,-61.388 c -2.957,2.878 -7.076,7.562 -9.582,13.296 -2.646,6.059 -3.143,13.35 -3.189,14.162 l 13.514,0.798 -6.756,-0.397 6.756,0.41 c 0.099,-1.554 0.66,-6.3 2.082,-9.553 2.671,-6.113 8.894,-11.043 8.958,-11.094 0,0 -7.099,-4.618 -11.783,-7.622 z" /><path
         style="fill:#ffffff"
         id="path173"
         d="m -34.252,-29.694 c 0.046,0.037 6.148,5.115 8.669,11.289 1.356,3.315 1.802,8.156 1.852,9.59 l 13.534,-0.473 c -0.03,-0.813 -0.349,-8.117 -2.852,-14.237 -3.173,-7.763 -9.287,-13.709 -11.709,-15.855 -2.901,3.002 -9.494,9.686 -9.494,9.686 z" /></g></symbol><g
     transform="matrix(2.7793763,0,0,2.7793763,18.069277,-413.56842)"
     id="g7749"><g
       id="g7686"><g
         transform="matrix(1.2616581,0,0,1.2616581,-20.100839,-83.893089)"
         id="g180"><path
           d="m 77.273,295.298 0,-5.722 1.576,0 c 1.348,0 2.007,0.633 2.007,1.711 0,1.078 -0.658,1.713 -2.006,1.713 l -0.482,0 0,2.297 -1.095,10e-4 0,0 z m 1.093,-3.202 0.587,0 c 0.539,0 0.809,-0.27 0.809,-0.809 0,-0.537 -0.271,-0.809 -0.809,-0.809 l -0.587,0 0,1.618 z"
           id="path182"
           style="fill:#475974" /><path
           d="m 81.537,295.298 0,-5.722 1.094,0 0,4.754 1.761,0 0,0.967 -2.855,10e-4 0,0 z"
           id="path184"
           style="fill:#475974" /><path
           d="m 84.59,295.298 1.418,-5.722 1.403,0 1.379,5.722 -1.046,0 -0.277,-1.205 -1.515,0 -0.309,1.205 -1.053,0 0,0 z m 1.56,-2.171 1.086,0 -0.531,-2.314 -0.016,0 -0.539,2.314 z"
           id="path186"
           style="fill:#475974" /><path
           d="m 92.182,289.577 0,0.967 -1.275,0 0,4.756 -1.093,0 0,-4.756 -1.276,0 0,-0.967 3.644,0 z"
           id="path188"
           style="fill:#475974" /><path
           d="m 92.072,295.298 1.419,-5.722 1.403,0 1.379,5.722 -1.047,0 -0.277,-1.205 -1.514,0 -0.31,1.205 -1.053,0 0,0 z m 1.563,-2.171 1.086,0 -0.531,-2.314 -0.017,0 -0.538,2.314 z"
           id="path190"
           style="fill:#475974" /><path
           d="m 96.788,295.298 0,-5.722 2.854,0 0,0.967 -1.76,0 0,1.315 1.379,0 0,0.967 -1.379,0 0,2.474 -1.094,-10e-4 0,0 z"
           id="path192"
           style="fill:#475974" /><path
           d="m 100.135,291.415 c 0,-1.412 0.744,-1.918 1.807,-1.918 1.062,0 1.807,0.508 1.807,1.918 l 0,2.045 c 0,1.41 -0.746,1.918 -1.807,1.918 -1.063,0 -1.807,-0.508 -1.807,-1.918 l 0,-2.045 z m 1.093,2.187 c 0,0.635 0.278,0.809 0.714,0.809 0.436,0 0.713,-0.174 0.713,-0.809 l 0,-2.33 c 0,-0.634 -0.278,-0.809 -0.713,-0.809 -0.436,0 -0.714,0.174 -0.714,0.809 l 0,2.33 z"
           id="path194"
           style="fill:#475974" /><path
           d="m 107.124,295.298 -0.95,-2.33 -0.523,0 0,2.33 -1.094,0 0,-5.722 1.585,0 c 1.315,0 1.941,0.633 1.941,1.711 0,0.713 -0.254,1.229 -0.864,1.459 l 1.078,2.551 -1.173,10e-4 0,0 z m -1.474,-3.233 0.563,0 c 0.483,0 0.776,-0.238 0.776,-0.793 0,-0.555 -0.293,-0.792 -0.776,-0.792 l -0.563,0 0,1.585 z"
           id="path196"
           style="fill:#475974" /><path
           d="m 108.948,295.298 0,-5.722 1.53,0 0.99,3.756 0.017,0 0.991,-3.756 1.529,0 0,5.722 -0.936,0 0,-4.502 -0.016,0 -1.166,4.502 -0.823,0 -1.166,-4.502 -0.017,0 0,4.502 -0.933,0 0,0 z"
           id="path198"
           style="fill:#475974" /><path
           d="m 114.584,295.298 1.419,-5.722 1.403,0 1.379,5.722 -1.046,0 -0.278,-1.205 -1.514,0 -0.309,1.205 -1.054,0 0,0 z m 1.562,-2.171 1.086,0 -0.531,-2.314 -0.017,0 -0.538,2.314 z"
           id="path200"
           style="fill:#475974" /><path
           d="m 76.821,303.472 1.419,-5.724 1.403,0 1.379,5.724 -1.048,0 -0.276,-1.205 -1.515,0 -0.309,1.205 -1.053,0 z m 1.562,-2.171 1.086,0 -0.53,-2.313 -0.017,0 -0.539,2.313 z"
           id="path202"
           style="fill:#475974" /><path
           d="m 82.695,297.749 0,4.004 c 0,0.547 0.238,0.832 0.77,0.832 0.53,0 0.776,-0.285 0.776,-0.832 l 0,-4.004 1.095,0 0,4.012 c 0,1.261 -0.746,1.791 -1.871,1.791 -1.125,0 -1.862,-0.531 -1.862,-1.791 l 0,-4.012 1.092,0 z"
           id="path204"
           style="fill:#475974" /><path
           d="m 86.301,297.749 1.522,0 c 1.252,0 1.95,0.539 1.998,1.981 l 0,1.76 c -0.048,1.441 -0.746,1.98 -1.998,1.98 l -1.522,0 0,-5.721 z m 1.095,4.756 0.38,0 c 0.603,0 0.951,-0.286 0.951,-1.142 l 0,-1.506 c 0,-0.81 -0.27,-1.143 -0.951,-1.143 l -0.38,0 0,3.791 z"
           id="path206"
           style="fill:#475974" /><path
           d="m 90.693,303.472 0,-5.724 1.094,0 0,5.724 -1.094,0 z"
           id="path208"
           style="fill:#475974" /><path
           d="m 96.067,297.749 0,0.967 -1.276,0 0,4.756 -1.094,0 0,-4.756 -1.275,0 0,-0.967 3.645,0 z"
           id="path210"
           style="fill:#475974" /><path
           d="m 96.543,299.588 c 0,-1.411 0.745,-1.918 1.807,-1.918 1.063,0 1.808,0.508 1.808,1.918 l 0,2.045 c 0,1.411 -0.746,1.917 -1.808,1.917 -1.063,0 -1.807,-0.507 -1.807,-1.917 l 0,-2.045 z m 1.094,2.188 c 0,0.635 0.276,0.81 0.714,0.81 0.436,0 0.713,-0.175 0.713,-0.81 l 0,-2.33 c 0,-0.636 -0.277,-0.81 -0.713,-0.81 -0.438,0 -0.714,0.174 -0.714,0.81 l 0,2.33 z"
           id="path212"
           style="fill:#475974" /><path
           d="m 103.534,303.472 -0.951,-2.331 -0.522,0 0,2.331 -1.094,0 0,-5.724 1.584,0 c 1.316,0 1.942,0.635 1.942,1.713 0,0.713 -0.254,1.229 -0.864,1.457 l 1.078,2.553 -1.173,10e-4 0,0 z m -1.474,-3.233 0.563,0 c 0.484,0 0.776,-0.237 0.776,-0.793 0,-0.556 -0.292,-0.791 -0.776,-0.791 l -0.563,0 0,1.584 z"
           id="path214"
           style="fill:#475974" /><path
           d="m 107.196,296.267 -1.165,1.158 -0.801,0 0.736,-1.158 1.23,0 z m -1.839,7.205 0,-5.724 1.094,0 0,5.724 -1.094,0 z"
           id="path216"
           style="fill:#475974" /><path
           d="m 107.03,303.472 1.418,-5.724 1.403,0 1.379,5.724 -1.046,0 -0.278,-1.205 -1.513,0 -0.31,1.205 -1.053,0 z m 1.562,-2.171 1.086,0 -0.531,-2.313 -0.018,0 -0.537,2.313 z"
           id="path218"
           style="fill:#475974" /><path
           d="m 114.869,301.776 c 0,0.635 0.277,0.81 0.714,0.81 0.437,0 0.713,-0.175 0.713,-0.81 l 0,-0.382 1.095,0 0,0.238 c 0,1.411 -0.746,1.917 -1.807,1.917 -1.063,0 -1.808,-0.507 -1.808,-1.917 l 0,-2.045 c 0,-1.411 0.745,-1.918 1.808,-1.918 1.063,0 1.807,0.508 1.807,1.918 l 0,0.016 -1.095,0 0,-0.157 c 0,-0.636 -0.276,-0.81 -0.713,-0.81 -0.437,0 -0.714,0.174 -0.714,0.81 l 0,2.33 z"
           id="path220"
           style="fill:#475974" /><path
           d="m 118.262,303.472 0,-5.724 1.094,0 0,5.724 -1.094,0 z"
           id="path222"
           style="fill:#475974" /><path
           d="m 121.48,297.749 0,4.004 c 0,0.547 0.236,0.832 0.768,0.832 0.532,0 0.777,-0.285 0.777,-0.832 l 0,-4.004 1.094,0 0,4.012 c 0,1.261 -0.745,1.791 -1.871,1.791 -1.125,0 -1.861,-0.531 -1.861,-1.791 l 0,-4.012 1.093,0 z"
           id="path224"
           style="fill:#475974" /><path
           d="m 125.086,297.749 1.522,0 c 1.252,0 1.95,0.539 1.998,1.981 l 0,1.76 c -0.048,1.441 -0.746,1.98 -1.998,1.98 l -1.522,0 0,-5.721 z m 1.094,4.756 0.381,0 c 0.602,0 0.95,-0.286 0.95,-1.142 l 0,-1.506 c 0,-0.81 -0.27,-1.143 -0.95,-1.143 l -0.381,0 0,3.791 z"
           id="path226"
           style="fill:#475974" /><path
           d="m 129.026,303.472 1.419,-5.724 1.402,0 1.379,5.724 -1.045,0 -0.278,-1.205 -1.515,0 -0.309,1.205 -1.053,0 z m 1.562,-2.171 1.086,0 -0.531,-2.313 -0.016,0 -0.539,2.313 z"
           id="path228"
           style="fill:#475974" /><path
           d="m 133.742,297.749 1.521,0 c 1.252,0 1.95,0.539 1.998,1.981 l 0,1.76 c -0.048,1.441 -0.744,1.98 -1.998,1.98 l -1.521,0 0,-5.721 z m 1.094,4.756 0.381,0 c 0.603,0 0.951,-0.286 0.951,-1.142 l 0,-1.506 c 0,-0.81 -0.269,-1.143 -0.951,-1.143 l -0.381,0 0,3.791 z"
           id="path230"
           style="fill:#475974" /><path
           d="m 137.682,303.472 1.418,-5.724 1.403,0 1.379,5.724 -1.045,0 -0.278,-1.205 -1.513,0 -0.309,1.205 -1.055,0 z m 1.561,-2.171 1.086,0 -0.531,-2.313 -0.016,0 -0.539,2.313 z"
           id="path232"
           style="fill:#475974" /><path
           d="m 142.462,303.472 0,-5.724 1.197,0 1.522,3.394 0.016,0 0,-3.394 0.998,0 0,5.724 -1.046,0 -1.672,-3.691 -0.017,0 0,3.691 -0.998,0 z"
           id="path234"
           style="fill:#475974" /><path
           d="m 146.774,303.472 1.419,-5.724 1.402,0 1.379,5.724 -1.045,0 -0.277,-1.205 -1.514,0 -0.31,1.205 -1.054,0 z m 1.561,-2.171 1.086,0 -0.53,-2.313 -0.017,0 -0.539,2.313 z"
           id="path236"
           style="fill:#475974" /><path
           d="m 77.209,305.924 1.522,0 c 1.252,0 1.948,0.539 1.997,1.98 l 0,1.76 c -0.049,1.442 -0.745,1.98 -1.997,1.98 l -1.522,0 0,-5.72 z m 1.094,4.755 0.382,0 c 0.603,0 0.95,-0.285 0.95,-1.142 l 0,-1.506 c 0,-0.81 -0.27,-1.143 -0.95,-1.143 l -0.382,0 0,3.791 z"
           id="path238"
           style="fill:#475974" /><path
           d="m 81.537,311.646 0,-5.725 2.996,0 0,0.967 -1.902,0 0,1.316 1.45,0 0,0.967 -1.45,0 0,1.506 1.982,0 0,0.968 -3.076,0.001 0,0 z"
           id="path240"
           style="fill:#475974" /><path
           d="m 87.546,311.646 0,-5.725 1.095,0 0,4.756 1.759,0 0,0.967 -2.854,0.002 0,0 z"
           id="path242"
           style="fill:#475974" /><path
           d="m 90.598,311.646 1.418,-5.725 1.403,0 1.379,5.725 -1.047,0 -0.277,-1.206 -1.515,0 -0.309,1.206 -1.052,0 z m 1.561,-2.172 1.086,0 -0.531,-2.313 -0.016,0 -0.539,2.313 z"
           id="path244"
           style="fill:#475974" /><path
           d="m 97.438,305.924 1.521,0 c 1.252,0 1.949,0.539 1.998,1.98 l 0,1.76 c -0.048,1.442 -0.746,1.98 -1.998,1.98 l -1.521,0 0,-5.72 z m 1.094,4.755 0.381,0 c 0.604,0 0.951,-0.285 0.951,-1.142 l 0,-1.506 c 0,-0.81 -0.271,-1.143 -0.951,-1.143 l -0.381,0 0,3.791 z"
           id="path246"
           style="fill:#e2001a" /><path
           d="m 101.766,311.646 0,-5.725 2.998,0 0,0.967 -1.902,0 0,1.316 1.449,0 0,0.967 -1.449,0 0,1.506 1.98,0 0,0.968 -3.076,0.001 0,0 0,0 z"
           id="path248"
           style="fill:#e2001a" /><path
           d="m 106.807,305.924 0,4.002 c 0,0.547 0.238,0.832 0.77,0.832 0.532,0 0.777,-0.285 0.777,-0.832 l 0,-4.002 1.094,0 0,4.01 c 0,1.261 -0.745,1.792 -1.871,1.792 -1.125,0 -1.863,-0.529 -1.863,-1.792 l 0,-4.01 1.093,0 z"
           id="path250"
           style="fill:#e2001a" /><path
           d="m 110.414,305.924 1.521,0 c 1.252,0 1.949,0.539 1.998,1.98 l 0,1.76 c -0.049,1.442 -0.746,1.98 -1.998,1.98 l -1.521,0 0,-5.72 z m 1.094,4.755 0.381,0 c 0.603,0 0.951,-0.285 0.951,-1.142 l 0,-1.506 c 0,-0.81 -0.27,-1.143 -0.951,-1.143 l -0.381,0 0,3.791 z"
           id="path252"
           style="fill:#e2001a" /><path
           d="m 114.354,311.646 1.419,-5.725 1.403,0 1.379,5.725 -1.047,0 -0.276,-1.206 -1.515,0 -0.31,1.206 -1.053,0 z m 1.561,-2.172 1.086,0 -0.53,-2.313 -0.017,0 -0.539,2.313 z"
           id="path254"
           style="fill:#e2001a" /></g><g
         transform="matrix(1.2616581,0,0,1.2616581,-20.100839,-85.893089)"
         id="g256"><path
           d="m 77.411,320.569 0.101,-1.732 0.327,0 0.103,1.732 -0.531,0 z m 0.523,-2.617 0,0.515 -0.516,0 0,-0.515 0.516,0 z"
           id="path258"
           style="fill:#e2001a" /><path
           d="m 78.434,319.923 0,-2.617 0.547,0 0.696,1.552 0.008,0 0,-1.552 0.457,0 0,2.617 -0.479,0 -0.765,-1.688 -0.007,0 0,1.688 -0.457,0 z"
           id="path260"
           style="fill:#e2001a" /><path
           d="m 80.576,318.661 c 0,-0.521 0.268,-0.746 0.725,-0.746 0.457,0 0.727,0.224 0.727,0.746 l 0,0.551 c 0,0.522 -0.27,0.748 -0.727,0.748 -0.457,0 -0.725,-0.226 -0.725,-0.748 l 0,-0.551 z m 0.457,0.668 c 0,0.152 0.107,0.23 0.268,0.23 0.161,0 0.27,-0.079 0.27,-0.23 l 0,-0.783 c 0,-0.152 -0.109,-0.23 -0.27,-0.23 -0.158,0 -0.268,0.079 -0.268,0.23 l 0,0.783 z"
           id="path262"
           style="fill:#e2001a" /><path
           d="m 84.391,319.923 0,-0.239 -0.009,0 c -0.079,0.123 -0.282,0.275 -0.485,0.275 -0.354,0 -0.5,-0.275 -0.5,-0.783 l 0,-0.479 c 0,-0.508 0.146,-0.783 0.5,-0.783 0.123,0 0.239,0.058 0.457,0.217 l 0,-0.826 0.459,0 0,2.617 -0.422,10e-4 0,0 z m -0.037,-1.526 c -0.09,-0.099 -0.174,-0.144 -0.275,-0.144 -0.123,0 -0.224,0.082 -0.224,0.473 l 0,0.421 c 0,0.393 0.102,0.473 0.224,0.473 0.103,0 0.187,-0.045 0.275,-0.144 l 0,-1.079 z"
           id="path264"
           style="fill:#e2001a" /><path
           d="m 85.666,319.045 0,0.262 c 0,0.195 0.115,0.283 0.269,0.283 0.191,0 0.268,-0.124 0.268,-0.274 l 0.457,0 c -0.021,0.405 -0.265,0.646 -0.725,0.646 -0.437,0 -0.726,-0.27 -0.726,-0.7 l 0,-0.646 c 0,-0.433 0.29,-0.701 0.726,-0.701 0.424,0 0.725,0.27 0.725,0.672 l 0,0.459 -0.994,0 0,-10e-4 z m 0.536,-0.369 0,-0.108 c 0,-0.175 -0.083,-0.283 -0.269,-0.283 -0.185,0 -0.268,0.108 -0.268,0.283 l 0,0.108 0.537,0 z"
           id="path266"
           style="fill:#e2001a" /><path
           d="m 87.059,319.923 0,-2.617 0.457,0 0,0.826 c 0.218,-0.159 0.333,-0.217 0.457,-0.217 0.354,0 0.5,0.274 0.5,0.783 l 0,0.479 c 0,0.508 -0.146,0.783 -0.5,0.783 -0.203,0 -0.406,-0.152 -0.486,-0.275 l -0.007,0 0,0.238 -0.421,0 0,0 z m 0.457,-0.446 c 0.091,0.099 0.174,0.144 0.274,0.144 0.124,0 0.226,-0.08 0.226,-0.473 l 0,-0.421 c 0,-0.391 -0.103,-0.471 -0.226,-0.471 -0.103,0 -0.185,0.043 -0.274,0.141 l 0,1.08 z"
           id="path268"
           style="fill:#e2001a" /><path
           d="m 89.291,319.045 0,0.262 c 0,0.195 0.116,0.283 0.269,0.283 0.192,0 0.269,-0.124 0.269,-0.274 l 0.457,0 c -0.021,0.405 -0.265,0.646 -0.726,0.646 -0.436,0 -0.726,-0.27 -0.726,-0.7 l 0,-0.646 c 0,-0.433 0.291,-0.701 0.726,-0.701 0.425,0 0.726,0.27 0.726,0.672 l 0,0.459 -0.995,0 0,-10e-4 z m 0.537,-0.369 0,-0.108 c 0,-0.175 -0.083,-0.283 -0.27,-0.283 -0.184,0 -0.268,0.108 -0.268,0.283 l 0,0.108 0.538,0 z"
           id="path270"
           style="fill:#e2001a" /><path
           d="m 90.684,317.952 0.443,0 0,0.225 c 0.147,-0.134 0.297,-0.262 0.488,-0.262 0.17,0 0.293,0.115 0.348,0.297 0.142,-0.155 0.286,-0.297 0.486,-0.297 0.275,0 0.417,0.166 0.417,0.521 l 0,1.486 -0.457,0 0,-1.5 c 0,-0.131 -0.047,-0.168 -0.12,-0.168 -0.086,0 -0.228,0.104 -0.285,0.179 l 0,1.49 -0.457,0 0,-1.501 c 0,-0.13 -0.052,-0.167 -0.125,-0.167 -0.098,0 -0.228,0.104 -0.282,0.179 l 0,1.49 -0.458,0 0.002,-1.972 0,0 z"
           id="path272"
           style="fill:#e2001a" /><path
           d="m 93.266,318.661 c 0,-0.521 0.268,-0.746 0.724,-0.746 0.458,0 0.726,0.224 0.726,0.746 l 0,0.551 c 0,0.522 -0.268,0.748 -0.726,0.748 -0.457,0 -0.724,-0.226 -0.724,-0.748 l 0,-0.551 z m 0.455,0.668 c 0,0.152 0.109,0.23 0.269,0.23 0.16,0 0.269,-0.079 0.269,-0.23 l 0,-0.783 c 0,-0.152 -0.108,-0.23 -0.269,-0.23 -0.159,0 -0.269,0.079 -0.269,0.23 l 0,0.783 z"
           id="path274"
           style="fill:#e2001a" /><path
           d="m 95.984,318.553 c -0.063,-0.182 -0.178,-0.268 -0.315,-0.268 -0.104,0 -0.185,0.076 -0.185,0.178 0,0.305 0.892,0.313 0.892,0.898 0,0.392 -0.274,0.599 -0.655,0.599 -0.275,0 -0.522,-0.069 -0.743,-0.562 l 0.409,-0.112 c 0.039,0.185 0.151,0.304 0.332,0.304 0.139,0 0.222,-0.063 0.222,-0.174 0,-0.377 -0.893,-0.287 -0.893,-0.949 0,-0.375 0.3,-0.551 0.624,-0.551 0.342,0 0.577,0.195 0.689,0.492 l -0.377,0.145 z"
           id="path276"
           style="fill:#e2001a" /><path
           d="m 97.174,319.038 -0.326,0 -0.103,-1.731 0.53,0 -0.101,1.731 z m -0.421,0.885 0,-0.515 0.515,0 0,0.515 -0.515,0 z"
           id="path278"
           style="fill:#e2001a" /><path
           d="m 98.762,320.569 0.101,-1.732 0.326,0 0.103,1.732 -0.53,0 z m 0.521,-2.617 0,0.515 -0.515,0 0,-0.515 0.515,0 z"
           id="path280"
           style="fill:#e2001a" /><path
           d="m 99.783,319.923 0,-2.617 0.548,0 0.696,1.552 0.007,0 0,-1.552 0.457,0 0,2.617 -0.479,0 -0.765,-1.688 -0.008,0 0,1.688 -0.456,0 z"
           id="path282"
           style="fill:#e2001a" /><path
           d="m 101.926,318.661 c 0,-0.521 0.27,-0.746 0.727,-0.746 0.457,0 0.727,0.224 0.727,0.746 l 0,0.551 c 0,0.522 -0.27,0.748 -0.727,0.748 -0.457,0 -0.727,-0.226 -0.727,-0.748 l 0,-0.551 z m 0.457,0.668 c 0,0.152 0.109,0.23 0.27,0.23 0.161,0 0.27,-0.079 0.27,-0.23 l 0,-0.783 c 0,-0.152 -0.109,-0.23 -0.27,-0.23 -0.161,0 -0.27,0.079 -0.27,0.23 l 0,0.783 z"
           id="path284"
           style="fill:#e2001a" /><path
           d="m 105.203,317.952 0,0.238 0.007,0 c 0.08,-0.124 0.283,-0.275 0.485,-0.275 0.355,0 0.5,0.275 0.5,0.783 l 0,0.479 c 0,0.508 -0.145,0.783 -0.5,0.783 -0.123,0 -0.239,-0.058 -0.457,-0.217 l 0,0.877 -0.457,0 0,-2.668 0.422,0 0,0 z m 0.037,1.525 c 0.09,0.099 0.173,0.144 0.275,0.144 0.123,0 0.225,-0.08 0.225,-0.473 l 0,-0.421 c 0,-0.391 -0.102,-0.471 -0.225,-0.471 -0.103,0 -0.186,0.043 -0.275,0.141 l 0,1.08 z"
           id="path286"
           style="fill:#e2001a" /><path
           d="m 106.553,318.528 c 0.018,-0.223 0.108,-0.375 0.242,-0.474 0.131,-0.098 0.31,-0.141 0.49,-0.141 0.486,0 0.67,0.246 0.67,0.598 l 0,1.252 c 0,0.056 0.011,0.109 0.025,0.16 l -0.457,0 c -0.011,-0.051 -0.019,-0.11 -0.032,-0.19 -0.134,0.133 -0.316,0.229 -0.544,0.229 -0.275,0 -0.454,-0.152 -0.454,-0.473 0,-0.457 0.436,-0.651 1.005,-0.822 l 0,-0.146 c 0,-0.171 -0.105,-0.235 -0.235,-0.235 -0.139,0 -0.254,0.101 -0.254,0.242 l -0.456,0 0,0 z m 0.945,0.431 c -0.271,0.094 -0.547,0.246 -0.547,0.453 0,0.129 0.08,0.207 0.203,0.207 0.138,0 0.236,-0.074 0.344,-0.184 l 0,-0.476 0,0 z"
           id="path288"
           style="fill:#e2001a" /><path
           d="m 109.924,318.314 c -0.037,-0.009 -0.105,-0.028 -0.142,-0.028 -0.047,0 -0.095,0.023 -0.156,0.043 0.029,0.129 0.059,0.228 0.059,0.348 0,0.493 -0.21,0.775 -0.66,0.775 -0.065,0 -0.12,-0.002 -0.188,-0.024 -0.024,0.036 -0.08,0.069 -0.08,0.116 0,0.247 1.146,-0.134 1.146,0.58 0,0.338 -0.348,0.497 -0.877,0.497 -0.486,0 -0.754,-0.138 -0.754,-0.358 0,-0.148 0.167,-0.238 0.275,-0.309 -0.108,-0.066 -0.188,-0.152 -0.188,-0.279 0,-0.155 0.163,-0.262 0.274,-0.33 -0.221,-0.145 -0.297,-0.354 -0.297,-0.685 0,-0.424 0.163,-0.744 0.676,-0.744 0.188,0 0.397,0.087 0.514,0.228 0.117,-0.144 0.229,-0.228 0.398,-0.228 l 0,0.398 0,0 z m -1.123,1.697 c -0.048,0.047 -0.095,0.086 -0.095,0.159 0,0.102 0.148,0.146 0.417,0.146 0.217,0 0.346,-0.057 0.346,-0.156 0,-0.064 -0.029,-0.094 -0.168,-0.105 l -0.5,-0.044 z m 0.211,-1.725 c -0.176,0 -0.24,0.119 -0.24,0.426 0,0.248 0.08,0.371 0.217,0.371 0.196,0 0.261,-0.072 0.261,-0.416 -0.001,-0.256 -0.08,-0.381 -0.238,-0.381 z"
           id="path290"
           style="fill:#e2001a" /><path
           d="m 110.178,318.528 c 0.018,-0.223 0.108,-0.375 0.243,-0.474 0.13,-0.098 0.309,-0.141 0.489,-0.141 0.486,0 0.67,0.246 0.67,0.598 l 0,1.252 c 0,0.056 0.011,0.109 0.025,0.16 l -0.457,0 c -0.012,-0.051 -0.019,-0.11 -0.033,-0.19 -0.135,0.133 -0.315,0.229 -0.544,0.229 -0.275,0 -0.453,-0.152 -0.453,-0.473 0,-0.457 0.435,-0.651 1.004,-0.822 l 0,-0.146 c 0,-0.171 -0.104,-0.235 -0.236,-0.235 -0.137,0 -0.253,0.101 -0.253,0.242 l -0.455,0 0,0 z m 0.946,0.431 c -0.271,0.094 -0.548,0.246 -0.548,0.453 0,0.129 0.08,0.207 0.204,0.207 0.138,0 0.236,-0.074 0.344,-0.184 l 0,-0.476 z"
           id="path292"
           style="fill:#e2001a" /><path
           d="m 112.033,317.952 0.443,0 0,0.225 c 0.147,-0.134 0.297,-0.262 0.488,-0.262 0.172,0 0.295,0.115 0.349,0.297 0.142,-0.155 0.287,-0.297 0.485,-0.297 0.275,0 0.418,0.166 0.418,0.521 l 0,1.486 -0.457,0 0,-1.5 c 0,-0.131 -0.048,-0.168 -0.121,-0.168 -0.086,0 -0.229,0.104 -0.287,0.179 l 0,1.49 -0.455,0 0,-1.501 c 0,-0.13 -0.052,-0.167 -0.125,-0.167 -0.098,0 -0.229,0.104 -0.282,0.179 l 0,1.49 -0.457,0 0.001,-1.972 0,0 z"
           id="path294"
           style="fill:#e2001a" /><path
           d="m 114.615,318.661 c 0,-0.521 0.268,-0.746 0.727,-0.746 0.457,0 0.725,0.224 0.725,0.746 l 0,0.551 c 0,0.522 -0.27,0.748 -0.725,0.748 -0.459,0 -0.727,-0.226 -0.727,-0.748 l 0,-0.551 z m 0.457,0.668 c 0,0.152 0.109,0.23 0.27,0.23 0.158,0 0.268,-0.079 0.268,-0.23 l 0,-0.783 c 0,-0.152 -0.109,-0.23 -0.268,-0.23 -0.16,0 -0.27,0.079 -0.27,0.23 l 0,0.783 z"
           id="path296"
           style="fill:#e2001a" /><path
           d="m 117.334,318.553 c -0.062,-0.182 -0.178,-0.268 -0.314,-0.268 -0.105,0 -0.187,0.076 -0.187,0.178 0,0.305 0.894,0.313 0.894,0.898 0,0.392 -0.276,0.599 -0.657,0.599 -0.276,0 -0.522,-0.069 -0.743,-0.562 l 0.409,-0.112 c 0.04,0.185 0.152,0.304 0.334,0.304 0.138,0 0.221,-0.063 0.221,-0.174 0,-0.377 -0.892,-0.287 -0.892,-0.949 0,-0.375 0.301,-0.551 0.624,-0.551 0.34,0 0.575,0.195 0.688,0.492 l -0.377,0.145 z"
           id="path298"
           style="fill:#e2001a" /><path
           d="m 118.523,319.038 -0.326,0 -0.102,-1.731 0.528,0 -0.1,1.731 z m -0.42,0.885 0,-0.515 0.515,0 0,0.515 -0.515,0 z"
           id="path300"
           style="fill:#e2001a" /></g></g><use
       style="overflow:visible"
       id="use302"
       overflow="visible"
       transform="matrix(0.2042,0,0,-0.2042,49.3906,252.5166)"
       y="-114.882"
       x="-115.328"
       height="229.76401"
       width="230.65601"
       xlink:href="#Euro" /></g></svg>