<?xml version="1.0" encoding="UTF-8" standalone="no"?>
<svg
   xmlns:dc="http://purl.org/dc/elements/1.1/"
   xmlns:cc="http://creativecommons.org/ns#"
   xmlns:rdf="http://www.w3.org/1999/02/22-rdf-syntax-ns#"
   xmlns:svg="http://www.w3.org/2000/svg"
   xmlns="http://www.w3.org/2000/svg"
   xmlns:xlink="http://www.w3.org/1999/xlink"
   version="1.1"
   id="color"
   x="0px"
   y="0px"
   width="620"
   height="620.00269"
   viewBox="0 0 619.99997 620.00267"
   enable-background="new 0 0 728.504 960.974"
   xml:space="preserve"><metadata
     id="metadata3247"><rdf:RDF><cc:Work
         rdf:about=""><dc:format>image/svg+xml</dc:format><dc:type
           rdf:resource="http://purl.org/dc/dcmitype/StillImage" /><dc:title></dc:title></cc:Work></rdf:RDF></metadata><defs
     id="defs3245" /><symbol
     id="Euro"
     viewBox="-115.328 -114.882 230.656 229.764"
     transform="translate(-170.48698,-286.72072)"><g
       display="none"
       id="g4"
       style="display:none"><g
         display="inline"
         id="g6"
         style="display:inline"><path
           d="m -74.438,-50.84 -21.803,-12.645 c 19.436,-29.333 51.952,-49.236 89.23,-51.397 l 0,25.188 c -27.993,2.087 -52.412,16.987 -67.427,38.854 z"
           id="path8"
           style="fill:#475974" /><path
           d="m -90.181,-0.002 c 0,14.027 3.211,27.302 8.939,39.134 l -21.803,12.644 c -7.854,-15.563 -12.283,-33.15 -12.283,-51.771 0,-18.623 4.43,-36.208 12.283,-51.771 l 21.803,12.638 c -5.728,11.823 -8.939,25.101 -8.939,39.126 z"
           id="path10"
           style="fill:#475974" /><path
           d="m -74.438,50.836 c 15.015,21.867 39.434,36.768 67.428,38.852 l 0,25.19 C -44.288,112.714 -76.805,92.804 -96.24,63.472 l 21.802,-12.636 z"
           id="path12"
           style="fill:#475974" /></g><g
         display="inline"
         id="g14"
         style="display:inline"><path
           d="m 74.44,50.836 21.803,12.642 c -19.437,29.33 -51.949,49.24 -89.23,51.404 l 0,-25.194 C 35.006,87.603 59.429,72.702 74.44,50.836 Z"
           id="path16"
           style="fill:#475974" /><path
           d="m 90.183,-0.002 c 0,-14.025 -3.211,-27.301 -8.938,-39.134 l 21.801,-12.643 c 7.853,15.563 12.282,33.149 12.282,51.771 0,18.622 -4.43,36.209 -12.282,51.771 l -21.8,-12.637 c 5.726,-11.825 8.937,-25.101 8.937,-39.128 z"
           id="path18"
           style="fill:#475974" /><path
           d="M 74.44,-50.84 C 59.429,-72.707 35.006,-87.608 7.013,-89.69 l 0,-25.188 c 37.281,2.161 69.794,22.071 89.23,51.403 L 74.44,-50.84 Z"
           id="path20"
           style="fill:#475974" /></g></g><g
       id="g22"><path
         d="m 0,-112.298 c -61.921,0 -112.297,50.376 -112.297,112.298 0,61.921 50.376,112.297 112.297,112.297 C 61.921,112.297 112.297,61.921 112.297,0 112.297,-61.921 61.921,-112.298 0,-112.298 Z M 0,94.297 c -51.995,0 -94.297,-42.301 -94.297,-94.297 0,-51.996 42.302,-94.298 94.297,-94.298 51.995,0 94.297,42.302 94.297,94.298 0,51.996 -42.3,94.297 -94.297,94.297 z"
         id="path24"
         style="fill:#475974" /></g><g
       id="g26"><path
         d="m -28.056,20.214 c 0.154,0.251 3.822,2.568 4.703,2.688 0.881,0.12 14.709,-1.458 15.163,-1.564 0.457,-0.109 2.21,-0.854 2.379,-1.021 0.172,-0.165 1.612,-2.449 1.591,-2.677 -0.013,-0.222 -0.848,-1.98 -1.011,-2.054 -0.163,-0.074 -9.452,0.5 -9.535,0.426 -0.079,-0.065 -0.88,-1.887 -0.856,-1.958 0.025,-0.064 10.244,-0.474 10.48,-0.587 0.225,-0.104 2.183,-3.015 2.205,-3.144 C -2.919,10.19 -3.591,7.284 -3.689,7.158 -3.791,7.03 -5.443,6.452 -5.695,6.452 c -0.248,0 -9.977,1.876 -10.06,1.798 -0.083,-0.075 -0.562,-2.167 -0.53,-2.235 0.033,-0.063 9.859,-1.546 10.016,-1.719 0.154,-0.176 0.568,-2.045 0.565,-2.298 0,-0.254 -0.353,-2.396 -0.495,-2.636 -0.137,-0.242 -1.199,-1.188 -1.47,-1.229 -0.267,-0.037 -8.829,1.799 -8.899,1.724 -0.07,-0.08 -0.52,-2.438 -0.467,-2.517 0.059,-0.076 9.289,-1.288 9.363,-1.435 0.074,-0.147 -0.547,-2.622 -0.65,-2.729 -0.102,-0.106 -1.018,-0.668 -1.29,-0.745 -0.271,-0.07 -13.929,0.077 -14.186,0.157 -0.261,0.081 -3.126,1.866 -3.243,2.081 -0.115,0.218 0.041,3.736 -0.048,3.947 -0.088,0.21 -2.774,2.604 -2.928,2.854 -0.147,0.249 -0.66,1.731 -0.623,2.053 0.03,0.315 1.875,3.978 1.866,4.272 -0.013,0.304 -2.321,3.438 -2.349,3.645 -0.027,0.199 0.473,1.521 0.626,1.813 0.157,0.291 2.407,2.563 2.49,2.838 0.08,0.28 -0.065,1.423 -0.071,1.692 -0.007,0.271 -0.129,2.182 0.022,2.431 z"
         id="path28"
         style="fill:#475974" /><path
         d="m -4.638,23.652 c -0.15,-0.083 -0.611,-2.096 -0.593,-2.223 0.019,-0.128 1.802,-2.745 1.82,-2.876 0.024,-0.132 -0.62,-3.771 -0.602,-3.922 0.021,-0.146 1.931,-4.013 2.045,-4.089 0.113,-0.077 2.378,-0.579 2.499,-0.528 0.119,0.059 1.219,1.526 1.277,1.8 0.072,0.322 -1.213,8.931 -1.425,9.188 -0.211,0.255 -4.875,2.737 -5.021,2.65 z"
         id="path30"
         style="fill:#475974" /></g><g
       id="g32"><path
         d="m 27.142,-3.866 c -0.156,0.247 -3.896,2.453 -4.776,2.547 -0.882,0.1 -14.659,-1.89 -15.11,-2.013 C 6.802,-3.457 5.071,-4.255 4.907,-4.427 4.737,-4.6 3.369,-6.923 3.394,-7.144 3.412,-7.37 4.296,-9.102 4.462,-9.166 c 0.168,-0.066 9.437,0.776 9.52,0.706 0.082,-0.071 0.936,-1.862 0.918,-1.935 -0.025,-0.068 -10.226,-0.773 -10.463,-0.896 -0.221,-0.113 -2.09,-3.079 -2.109,-3.209 -0.018,-0.128 0.74,-3.017 0.842,-3.142 0.111,-0.122 1.774,-0.652 2.026,-0.646 0.249,0.008 9.919,2.167 10.005,2.094 0.082,-0.069 0.627,-2.146 0.596,-2.217 -0.031,-0.063 -9.813,-1.837 -9.959,-2.017 -0.15,-0.187 -0.514,-2.063 -0.501,-2.313 0.009,-0.256 0.421,-2.385 0.571,-2.623 0.145,-0.233 1.234,-1.146 1.504,-1.179 0.268,-0.027 8.773,2.057 8.848,1.979 0.074,-0.074 0.59,-2.421 0.537,-2.5 -0.055,-0.073 -9.243,-1.559 -9.314,-1.711 -0.07,-0.146 0.624,-2.604 0.729,-2.707 0.104,-0.104 1.037,-0.638 1.311,-0.702 0.275,-0.066 13.922,0.48 14.18,0.569 0.255,0.087 3.067,1.957 3.178,2.181 0.111,0.218 -0.15,3.729 -0.067,3.938 0.083,0.209 2.694,2.688 2.843,2.943 0.141,0.255 0.607,1.751 0.564,2.063 -0.043,0.318 -1.992,3.917 -1.992,4.229 0,0.3 2.22,3.497 2.241,3.696 0.019,0.207 -0.517,1.519 -0.682,1.804 -0.163,0.288 -2.48,2.485 -2.569,2.765 -0.09,0.276 0.021,1.424 0.021,1.695 0.001,0.277 0.062,2.188 -0.098,2.435 z"
         id="path34"
         style="fill:#475974" /><path
         d="M 3.179,-1.193 C 3.329,-1.265 3.851,-3.258 3.835,-3.386 3.815,-3.52 2.568,-6.111 2.556,-6.243 2.54,-6.38 3.289,-9.999 3.273,-10.147 3.258,-10.293 1.459,-14.21 1.348,-14.293 c -0.107,-0.08 -2.361,-0.646 -2.48,-0.604 -0.12,0.056 -1.262,1.494 -1.329,1.763 -0.083,0.322 0.948,8.964 1.153,9.224 0.207,0.259 4.336,2.8 4.487,2.717 z"
         id="path36"
         style="fill:#475974" /></g><g
       id="g38"><path
         d="m 19.99,62.305 0,13.75 -13.432,5.756 0,-16.84 C 4.4,65.179 2.213,65.285 0,65.285 c -2.141,0 -4.255,-0.104 -6.343,-0.294 l 0,11.063 -13.434,5.756 0,-19.44 c -27.56,-8.358 -47.597,-33.721 -47.597,-63.711 0,-17.694 6.92,-33.727 18.303,-45.651 0.918,-0.052 23.449,0.668 23.449,0.668 -14.97,9.063 -25.015,25.813 -25.015,44.983 0,21.564 12.723,40.082 30.859,48.014 l 0,-22.72 9.434,-0.763 4,-0.697 0,27.888 c 2.079,0.271 4.194,0.42 6.343,0.42 2.225,0 4.411,-0.163 6.557,-0.45 l 0,-52.562 13.432,2.027 0,46.757 c 18.026,-7.982 30.65,-26.434 30.65,-47.916 0,-17.426 -8.302,-32.854 -21.054,-42.323 L 30.17,-47 l 18.897,0 c 11.354,11.925 18.308,27.989 18.308,45.658 0,29.918 -19.938,55.225 -47.385,63.647 z"
         id="path40"
         style="fill:#e2001a" /><path
         d="m 22.362,-61.389 c -2.957,2.879 -7.076,7.562 -9.582,13.297 -2.646,6.058 -3.143,13.349 -3.189,14.162 l 13.514,0.798 -6.756,-0.398 6.756,0.41 c 0.099,-1.553 0.66,-6.299 2.082,-9.552 2.671,-6.114 8.894,-11.043 8.958,-11.094 0,0 -7.099,-4.617 -11.783,-7.623 z"
         id="path42"
         style="fill:#e2001a" /><path
         d="m -34.252,-29.694 c 0.046,0.037 6.148,5.116 8.669,11.289 1.356,3.315 1.802,8.156 1.852,9.589 l 13.534,-0.473 c -0.03,-0.813 -0.349,-8.117 -2.851,-14.237 -3.173,-7.763 -9.287,-13.709 -11.709,-15.854 -2.903,3.002 -9.495,9.686 -9.495,9.686 z"
         id="path44"
         style="fill:#e2001a" /></g></symbol><symbol
     id="Euro_1"
     viewBox="-115.328 -114.883 230.656 229.765"
     transform="translate(-170.48698,-286.72072)"><g
       display="none"
       id="g47"
       style="display:none"><g
         display="inline"
         id="g49"
         style="display:inline"><path
           d="m -74.438,-50.841 -21.803,-12.643 c 19.436,-29.333 51.952,-49.238 89.229,-51.399 l 0,25.188 c -27.992,2.089 -52.412,16.988 -67.426,38.854 z"
           id="path51"
           style="fill:#ffffff" /><path
           d="m -90.181,-0.002 c 0,14.027 3.211,27.302 8.939,39.134 l -21.803,12.642 c -7.854,-15.564 -12.283,-33.15 -12.283,-51.772 0,-18.622 4.43,-36.208 12.283,-51.771 l 21.803,12.641 c -5.728,11.823 -8.939,25.101 -8.939,39.126 z"
           id="path53"
           style="fill:#ffffff" /><path
           d="m -74.438,50.835 c 15.015,21.867 39.434,36.769 67.428,38.852 l 0,25.195 C -44.288,112.718 -76.805,92.808 -96.239,63.476 l 21.801,-12.641 z"
           id="path55"
           style="fill:#ffffff" /></g><g
         display="inline"
         id="g57"
         style="display:inline"><path
           d="m 74.44,50.835 21.803,12.643 c -19.437,29.33 -51.949,49.24 -89.23,51.404 l 0,-25.195 C 35.006,87.604 59.429,72.702 74.44,50.835 Z"
           id="path59"
           style="fill:#ffffff" /><path
           d="m 90.183,-0.002 c 0,-14.025 -3.211,-27.303 -8.938,-39.134 l 21.801,-12.642 c 7.853,15.563 12.282,33.149 12.282,51.771 0,18.622 -4.43,36.21 -12.282,51.771 l -21.8,-12.636 c 5.726,-11.826 8.937,-25.102 8.937,-39.13 z"
           id="path61"
           style="fill:#ffffff" /><path
           d="M 74.44,-50.841 C 59.429,-72.707 35.006,-87.609 7.013,-89.691 l 0,-25.188 c 37.281,2.161 69.794,22.071 89.23,51.403 L 74.44,-50.841 Z"
           id="path63"
           style="fill:#ffffff" /></g></g><g
       id="g65"><path
         d="m 0,-112.298 c -61.92,0 -112.296,50.377 -112.296,112.298 0,61.921 50.376,112.297 112.296,112.297 C 61.92,112.297 112.297,61.921 112.297,0 112.297,-61.921 61.921,-112.298 0,-112.298 Z M 0,94.297 c -51.995,0 -94.297,-42.302 -94.297,-94.297 0,-51.996 42.302,-94.298 94.297,-94.298 51.995,0 94.297,42.302 94.297,94.298 0,51.995 -42.3,94.297 -94.297,94.297 z"
         id="path67"
         style="fill:#475974" /></g><g
       id="g69"><path
         d="m -28.056,20.214 c 0.154,0.251 3.822,2.567 4.703,2.688 0.881,0.116 14.709,-1.459 15.163,-1.565 0.457,-0.108 2.21,-0.856 2.379,-1.023 0.172,-0.165 1.612,-2.448 1.591,-2.674 -0.013,-0.223 -0.848,-1.981 -1.011,-2.054 -0.163,-0.073 -9.452,0.5 -9.535,0.427 -0.079,-0.067 -0.88,-1.888 -0.856,-1.959 0.025,-0.065 10.244,-0.474 10.48,-0.588 0.225,-0.104 2.183,-3.015 2.205,-3.144 C -2.919,10.186 -3.591,7.283 -3.689,7.156 -3.791,7.029 -5.443,6.45 -5.695,6.45 c -0.248,0 -9.977,1.877 -10.06,1.799 -0.083,-0.075 -0.562,-2.168 -0.53,-2.235 0.033,-0.063 9.859,-1.546 10.016,-1.72 0.154,-0.176 0.568,-2.045 0.565,-2.297 0,-0.255 -0.353,-2.396 -0.495,-2.637 -0.137,-0.242 -1.199,-1.188 -1.47,-1.229 -0.267,-0.037 -8.829,1.799 -8.899,1.719 -0.07,-0.076 -0.52,-2.436 -0.467,-2.512 0.059,-0.076 9.289,-1.287 9.363,-1.437 0.074,-0.146 -0.547,-2.62 -0.65,-2.729 -0.102,-0.108 -1.018,-0.668 -1.29,-0.745 -0.271,-0.072 -13.929,0.077 -14.186,0.157 -0.261,0.081 -3.126,1.865 -3.243,2.081 -0.115,0.22 0.041,3.737 -0.048,3.947 -0.088,0.212 -2.774,2.604 -2.928,2.855 -0.147,0.249 -0.66,1.731 -0.623,2.048 0.03,0.32 1.875,3.979 1.866,4.277 -0.013,0.305 -2.321,3.438 -2.349,3.641 -0.027,0.203 0.473,1.525 0.626,1.816 0.157,0.291 2.407,2.559 2.49,2.838 0.08,0.28 -0.065,1.423 -0.071,1.691 -0.007,0.276 -0.129,2.187 0.022,2.436 z"
         id="path71"
         style="fill:#ffffff" /><path
         d="m -4.638,23.653 c -0.15,-0.084 -0.611,-2.095 -0.593,-2.222 0.018,-0.127 1.802,-2.743 1.82,-2.876 0.024,-0.132 -0.62,-3.772 -0.602,-3.922 0.021,-0.146 1.931,-4.013 2.045,-4.089 0.113,-0.078 2.378,-0.579 2.499,-0.529 0.119,0.057 1.219,1.527 1.277,1.798 0.072,0.324 -1.213,8.931 -1.425,9.188 -0.211,0.256 -4.875,2.738 -5.021,2.652 z"
         id="path73"
         style="fill:#ffffff" /></g><g
       id="g75"><path
         d="m 27.142,-3.866 c -0.156,0.248 -3.896,2.453 -4.776,2.547 C 21.484,-1.22 7.707,-3.209 7.256,-3.331 6.802,-3.456 5.071,-4.255 4.907,-4.427 4.737,-4.6 3.369,-6.922 3.394,-7.144 3.412,-7.37 4.296,-9.102 4.462,-9.166 c 0.168,-0.065 9.437,0.775 9.52,0.706 0.082,-0.07 0.936,-1.861 0.918,-1.935 -0.025,-0.068 -10.226,-0.773 -10.463,-0.896 -0.221,-0.113 -2.09,-3.078 -2.109,-3.209 -0.018,-0.127 0.74,-3.017 0.842,-3.142 0.111,-0.121 1.774,-0.651 2.026,-0.646 0.249,0.008 9.919,2.167 10.005,2.094 0.082,-0.071 0.627,-2.148 0.596,-2.217 -0.031,-0.065 -9.813,-1.837 -9.959,-2.017 -0.15,-0.185 -0.514,-2.063 -0.501,-2.313 0.009,-0.256 0.421,-2.386 0.571,-2.623 0.145,-0.235 1.234,-1.147 1.504,-1.18 0.268,-0.027 8.773,2.057 8.848,1.979 0.074,-0.075 0.59,-2.422 0.537,-2.501 -0.055,-0.074 -9.243,-1.558 -9.314,-1.711 -0.07,-0.146 0.624,-2.604 0.729,-2.709 0.104,-0.104 1.037,-0.635 1.311,-0.704 0.275,-0.063 13.922,0.485 14.18,0.573 0.255,0.088 3.067,1.957 3.178,2.18 0.111,0.218 -0.15,3.729 -0.067,3.939 0.083,0.21 2.694,2.688 2.843,2.942 0.141,0.255 0.607,1.751 0.564,2.063 -0.043,0.318 -1.992,3.918 -1.992,4.227 0,0.301 2.22,3.497 2.241,3.698 0.019,0.207 -0.517,1.518 -0.682,1.803 -0.163,0.288 -2.48,2.486 -2.569,2.765 -0.09,0.28 0.021,1.428 0.021,1.699 0.001,0.277 0.062,2.189 -0.098,2.435 z"
         id="path77"
         style="fill:#ffffff" /><path
         d="M 3.179,-1.193 C 3.329,-1.267 3.851,-3.26 3.835,-3.388 3.816,-3.52 2.569,-6.111 2.556,-6.243 2.54,-6.38 3.289,-9.999 3.273,-10.147 c -0.015,-0.145 -1.814,-4.064 -1.925,-4.146 -0.107,-0.08 -2.361,-0.646 -2.48,-0.604 -0.12,0.054 -1.262,1.494 -1.329,1.761 -0.083,0.324 0.948,8.967 1.153,9.227 0.207,0.258 4.336,2.799 4.487,2.716 z"
         id="path79"
         style="fill:#ffffff" /></g><g
       id="g81"><path
         d="m 19.99,62.305 0,13.75 -13.432,5.757 0,-16.841 C 4.4,65.179 2.213,65.285 0,65.285 c -2.141,0 -4.255,-0.104 -6.343,-0.294 l 0,11.063 -13.434,5.757 0,-19.442 c -27.56,-8.358 -47.597,-33.721 -47.597,-63.712 0,-17.693 6.92,-33.725 18.303,-45.65 0.918,-0.053 23.449,0.668 23.449,0.668 -14.97,9.06 -25.015,25.813 -25.015,44.982 0,21.566 12.723,40.082 30.859,48.014 l 0,-22.719 9.434,-0.763 4,-0.697 0,27.888 c 2.079,0.266 4.195,0.42 6.344,0.42 2.225,0 4.411,-0.162 6.557,-0.449 l 0,-52.563 13.432,2.027 0,46.758 c 18.026,-7.982 30.65,-26.432 30.65,-47.916 0,-17.425 -8.302,-32.854 -21.054,-42.322 L 30.17,-47 l 18.897,0 c 11.354,11.925 18.308,27.989 18.308,45.657 0,29.918 -19.938,55.225 -47.385,63.648 z"
         id="path83"
         style="fill:#e2001a" /><path
         d="m 22.362,-61.388 c -2.957,2.878 -7.076,7.562 -9.582,13.296 -2.646,6.059 -3.143,13.35 -3.189,14.162 l 13.514,0.798 -6.756,-0.397 6.756,0.41 c 0.099,-1.554 0.66,-6.3 2.082,-9.553 2.671,-6.113 8.894,-11.043 8.958,-11.094 0,0 -7.099,-4.618 -11.783,-7.622 z"
         id="path85"
         style="fill:#e2001a" /><path
         d="m -34.252,-29.694 c 0.046,0.037 6.148,5.115 8.669,11.289 1.356,3.315 1.802,8.156 1.852,9.59 l 13.534,-0.473 c -0.03,-0.813 -0.349,-8.117 -2.852,-14.237 -3.173,-7.763 -9.287,-13.709 -11.709,-15.855 -2.901,3.002 -9.494,9.686 -9.494,9.686 z"
         id="path87"
         style="fill:#e2001a" /></g></symbol><symbol
     id="Euro_5"
     viewBox="-115.328 -114.881 230.656 229.762"
     transform="translate(-170.48698,-286.72072)"><g
       display="none"
       id="g90"
       style="display:none"><g
         display="inline"
         id="g92"
         style="display:inline"><path
           d="m -74.438,-50.841 -21.803,-12.641 c 19.436,-29.333 51.952,-49.238 89.229,-51.399 l 0,25.189 c -27.992,2.084 -52.412,16.984 -67.426,38.851 z"
           id="path94"
           style="fill:#475974" /><path
           d="m -90.181,-0.003 c 0,14.027 3.211,27.302 8.939,39.134 l -21.803,12.642 c -7.854,-15.563 -12.283,-33.15 -12.283,-51.772 0,-18.622 4.43,-36.208 12.283,-51.771 l 21.803,12.641 c -5.728,11.822 -8.939,25.1 -8.939,39.126 z"
           id="path96"
           style="fill:#475974" /><path
           d="m -74.438,50.835 c 15.015,21.867 39.434,36.768 67.428,38.851 l 0,25.195 C -44.288,112.717 -76.805,92.807 -96.239,63.475 l 21.801,-12.64 z"
           id="path98"
           style="fill:#475974" /></g><g
         display="inline"
         id="g100"
         style="display:inline"><path
           d="m 74.44,50.835 21.803,12.642 c -19.437,29.33 -51.949,49.24 -89.23,51.404 l 0,-25.195 C 35.006,87.603 59.429,72.701 74.44,50.835 Z"
           id="path102"
           style="fill:#475974" /><path
           d="m 90.183,-0.003 c 0,-14.025 -3.211,-27.301 -8.938,-39.134 l 21.801,-12.642 c 7.853,15.563 12.282,33.149 12.282,51.771 0,18.622 -4.43,36.21 -12.282,51.771 L 81.246,39.126 C 86.972,27.3 90.183,14.024 90.183,-0.003 Z"
           id="path104"
           style="fill:#475974" /><path
           d="M 74.44,-50.841 C 59.429,-72.708 35.006,-87.609 7.013,-89.691 l 0,-25.189 c 37.281,2.161 69.794,22.071 89.23,51.403 L 74.44,-50.841 Z"
           id="path106"
           style="fill:#475974" /></g></g><g
       id="g108"><path
         d="m 0,-112.298 c -61.92,0 -112.296,50.376 -112.296,112.297 0,61.921 50.376,112.297 112.296,112.297 61.92,0 112.297,-50.376 112.297,-112.297 C 112.297,-61.922 61.921,-112.298 0,-112.298 Z M 0,94.296 c -51.995,0 -94.297,-42.301 -94.297,-94.297 0,-51.996 42.303,-94.297 94.297,-94.297 51.995,0 94.297,42.301 94.297,94.297 0,51.996 -42.3,94.297 -94.297,94.297 z"
         id="path110"
         style="fill:#1d1d1b" /></g><g
       id="g112"><path
         d="m -28.056,20.213 c 0.154,0.251 3.822,2.568 4.703,2.688 0.881,0.117 14.709,-1.458 15.163,-1.564 0.457,-0.109 2.21,-0.857 2.379,-1.024 0.172,-0.165 1.612,-2.448 1.591,-2.674 -0.013,-0.222 -0.848,-1.982 -1.011,-2.054 -0.163,-0.072 -9.452,0.5 -9.535,0.427 -0.079,-0.067 -0.88,-1.888 -0.856,-1.958 0.025,-0.066 10.244,-0.475 10.48,-0.588 0.225,-0.104 2.183,-3.016 2.205,-3.144 0.018,-0.133 -0.654,-3.04 -0.752,-3.165 -0.102,-0.13 -1.753,-0.708 -2.005,-0.708 -0.248,0 -9.977,1.877 -10.06,1.798 -0.083,-0.075 -0.562,-2.167 -0.53,-2.235 0.033,-0.063 9.859,-1.545 10.016,-1.719 0.154,-0.176 0.568,-2.045 0.565,-2.298 0,-0.255 -0.353,-2.396 -0.495,-2.637 -0.137,-0.241 -1.199,-1.188 -1.47,-1.228 -0.267,-0.037 -8.829,1.799 -8.899,1.719 -0.07,-0.077 -0.52,-2.436 -0.467,-2.512 0.059,-0.076 9.289,-1.288 9.363,-1.436 0.074,-0.148 -0.547,-2.622 -0.65,-2.729 -0.102,-0.107 -1.018,-0.668 -1.29,-0.745 -0.271,-0.071 -13.93,0.078 -14.186,0.159 -0.261,0.08 -3.126,1.865 -3.243,2.08 -0.116,0.218 0.04,3.734 -0.049,3.946 -0.088,0.211 -2.774,2.604 -2.928,2.854 -0.147,0.25 -0.66,1.732 -0.623,2.049 0.03,0.32 1.875,3.979 1.866,4.277 -0.013,0.304 -2.321,3.438 -2.349,3.64 -0.028,0.204 0.473,1.525 0.626,1.817 0.157,0.291 2.407,2.56 2.49,2.838 0.08,0.279 -0.065,1.422 -0.071,1.691 -0.007,0.275 -0.129,2.186 0.022,2.435 z"
         id="path114"
         style="fill:#1d1d1b" /><path
         d="m -4.638,23.651 c -0.15,-0.083 -0.611,-2.094 -0.593,-2.221 0.019,-0.128 1.802,-2.747 1.82,-2.876 0.024,-0.132 -0.62,-3.772 -0.602,-3.922 0.021,-0.146 1.931,-4.013 2.045,-4.089 0.113,-0.077 2.378,-0.579 2.499,-0.528 0.119,0.057 1.219,1.526 1.277,1.798 0.072,0.323 -1.213,8.931 -1.425,9.188 -0.211,0.255 -4.875,2.737 -5.021,2.65 z"
         id="path116"
         style="fill:#1d1d1b" /></g><g
       id="g118"><path
         d="M 27.142,-3.867 C 26.986,-3.62 23.246,-1.414 22.366,-1.32 21.483,-1.225 7.707,-3.211 7.255,-3.333 6.802,-3.457 5.071,-4.256 4.907,-4.428 4.737,-4.601 3.369,-6.924 3.394,-7.146 c 0.018,-0.226 0.902,-1.958 1.068,-2.022 0.168,-0.065 9.437,0.776 9.52,0.707 0.082,-0.071 0.936,-1.862 0.918,-1.938 -0.025,-0.065 -10.226,-0.771 -10.463,-0.894 -0.221,-0.113 -2.09,-3.079 -2.109,-3.209 -0.018,-0.128 0.74,-3.017 0.842,-3.142 0.111,-0.123 1.774,-0.651 2.026,-0.646 0.249,0.008 9.919,2.166 10.005,2.094 0.082,-0.071 0.627,-2.148 0.596,-2.217 -0.031,-0.065 -9.813,-1.838 -9.959,-2.018 -0.15,-0.185 -0.514,-2.063 -0.501,-2.313 0.009,-0.256 0.421,-2.386 0.571,-2.623 0.145,-0.234 1.234,-1.147 1.504,-1.179 0.268,-0.027 8.773,2.057 8.848,1.979 0.074,-0.075 0.59,-2.422 0.537,-2.502 -0.055,-0.072 -9.243,-1.557 -9.314,-1.709 -0.07,-0.146 0.624,-2.604 0.729,-2.709 0.104,-0.104 1.037,-0.636 1.311,-0.704 0.275,-0.063 13.922,0.484 14.18,0.573 0.255,0.088 3.067,1.957 3.178,2.177 0.111,0.22 -0.15,3.729 -0.067,3.941 0.083,0.212 2.694,2.688 2.843,2.942 0.141,0.256 0.607,1.752 0.564,2.064 -0.043,0.317 -1.992,3.917 -1.992,4.227 0,0.301 2.22,3.496 2.241,3.697 0.019,0.206 -0.517,1.518 -0.682,1.803 -0.163,0.288 -2.48,2.486 -2.569,2.766 -0.09,0.275 0.021,1.424 0.021,1.694 0.001,0.282 0.062,2.193 -0.098,2.44 z"
         id="path120"
         style="fill:#1d1d1b" /><path
         d="M 3.179,-1.195 C 3.329,-1.268 3.851,-3.262 3.835,-3.389 3.815,-3.522 2.568,-6.113 2.556,-6.243 2.54,-6.38 3.289,-10 3.273,-10.147 c -0.015,-0.146 -1.814,-4.065 -1.925,-4.146 -0.107,-0.08 -2.361,-0.646 -2.48,-0.604 -0.12,0.054 -1.262,1.494 -1.329,1.761 -0.083,0.323 0.948,8.966 1.153,9.226 0.207,0.258 4.336,2.799 4.487,2.715 z"
         id="path122"
         style="fill:#1d1d1b" /></g><g
       id="g124"><path
         d="m 19.99,62.304 0,13.75 -13.432,5.756 0,-16.84 C 4.4,65.178 2.213,65.284 0,65.284 c -2.141,0 -4.255,-0.104 -6.343,-0.294 l 0,11.063 -13.434,5.756 0,-19.44 c -27.56,-8.358 -47.597,-33.721 -47.597,-63.711 0,-17.693 6.92,-33.725 18.303,-45.651 0.918,-0.052 23.449,0.668 23.449,0.668 -14.97,9.061 -25.015,25.813 -25.015,44.983 0,21.566 12.723,40.082 30.859,48.014 l 0,-22.72 9.434,-0.763 4,-0.697 0,27.888 c 2.079,0.27 4.194,0.42 6.343,0.42 2.225,0 4.411,-0.163 6.557,-0.45 l 0,-52.562 13.432,2.026 0,46.758 c 18.026,-7.982 30.65,-26.432 30.65,-47.916 0,-17.426 -8.302,-32.854 -21.054,-42.323 l 0.586,-3.335 18.897,0 c 11.354,11.926 18.308,27.988 18.308,45.658 0,29.919 -19.938,55.226 -47.385,63.648 z"
         id="path126"
         style="fill:#1d1d1b" /><path
         d="m 22.362,-61.39 c -2.957,2.879 -7.076,7.562 -9.582,13.297 -2.646,6.059 -3.143,13.35 -3.189,14.161 l 13.514,0.798 -6.755,-0.397 6.756,0.41 c 0.099,-1.554 0.66,-6.3 2.082,-9.552 2.671,-6.114 8.894,-11.043 8.958,-11.095 -10e-4,0 -7.1,-4.616 -11.784,-7.622 z"
         id="path128"
         style="fill:#1d1d1b" /><path
         d="m -34.252,-29.695 c 0.046,0.036 6.148,5.115 8.669,11.289 1.356,3.314 1.802,8.155 1.852,9.589 l 13.534,-0.473 c -0.03,-0.813 -0.349,-8.116 -2.852,-14.237 -3.173,-7.762 -9.287,-13.709 -11.709,-15.855 -2.901,3.004 -9.494,9.687 -9.494,9.687 z"
         id="path130"
         style="fill:#1d1d1b" /></g></symbol><symbol
     id="Euro_6"
     viewBox="-115.328 -114.883 230.656 229.765"
     transform="translate(-170.48698,-286.72072)"><g
       display="none"
       id="g133"
       style="display:none"><g
         display="inline"
         id="g135"
         style="display:inline"><path
           d="m -74.438,-50.841 -21.803,-12.643 c 19.436,-29.333 51.952,-49.238 89.229,-51.399 l 0,25.188 c -27.992,2.089 -52.412,16.988 -67.426,38.854 z"
           id="path137"
           style="fill:#ffffff" /><path
           d="m -90.181,-0.002 c 0,14.027 3.211,27.302 8.939,39.134 l -21.803,12.642 c -7.854,-15.564 -12.283,-33.15 -12.283,-51.772 0,-18.622 4.43,-36.208 12.283,-51.771 l 21.803,12.641 c -5.728,11.823 -8.939,25.101 -8.939,39.126 z"
           id="path139"
           style="fill:#ffffff" /><path
           d="m -74.438,50.835 c 15.015,21.867 39.434,36.769 67.428,38.852 l 0,25.195 C -44.288,112.718 -76.805,92.808 -96.239,63.476 l 21.801,-12.641 z"
           id="path141"
           style="fill:#ffffff" /></g><g
         display="inline"
         id="g143"
         style="display:inline"><path
           d="m 74.44,50.835 21.803,12.643 c -19.437,29.33 -51.949,49.24 -89.23,51.404 l 0,-25.195 C 35.006,87.604 59.429,72.702 74.44,50.835 Z"
           id="path145"
           style="fill:#ffffff" /><path
           d="m 90.183,-0.002 c 0,-14.025 -3.211,-27.303 -8.938,-39.134 l 21.801,-12.642 c 7.853,15.563 12.282,33.149 12.282,51.771 0,18.622 -4.43,36.21 -12.282,51.771 l -21.8,-12.636 c 5.726,-11.826 8.937,-25.102 8.937,-39.13 z"
           id="path147"
           style="fill:#ffffff" /><path
           d="M 74.44,-50.841 C 59.429,-72.707 35.006,-87.609 7.013,-89.691 l 0,-25.188 c 37.281,2.161 69.794,22.071 89.23,51.403 L 74.44,-50.841 Z"
           id="path149"
           style="fill:#ffffff" /></g></g><g
       id="g151"><path
         d="m 0,-112.298 c -61.92,0 -112.296,50.377 -112.296,112.298 0,61.921 50.376,112.297 112.296,112.297 C 61.92,112.297 112.297,61.921 112.297,0 112.297,-61.921 61.921,-112.298 0,-112.298 Z M 0,94.297 c -51.995,0 -94.297,-42.302 -94.297,-94.297 0,-51.996 42.302,-94.298 94.297,-94.298 51.995,0 94.297,42.302 94.297,94.298 0,51.995 -42.3,94.297 -94.297,94.297 z"
         id="path153"
         style="fill:#ffffff" /></g><g
       id="g155"><path
         d="m -28.056,20.214 c 0.154,0.251 3.822,2.567 4.703,2.688 0.881,0.116 14.709,-1.459 15.163,-1.565 0.457,-0.108 2.21,-0.856 2.379,-1.023 0.172,-0.165 1.612,-2.448 1.591,-2.674 -0.013,-0.223 -0.848,-1.981 -1.011,-2.054 -0.163,-0.073 -9.452,0.5 -9.535,0.427 -0.079,-0.067 -0.88,-1.888 -0.856,-1.959 0.025,-0.065 10.244,-0.474 10.48,-0.588 0.225,-0.104 2.183,-3.015 2.205,-3.144 C -2.919,10.186 -3.591,7.283 -3.689,7.156 -3.791,7.029 -5.443,6.45 -5.695,6.45 c -0.248,0 -9.977,1.877 -10.06,1.799 -0.083,-0.075 -0.562,-2.168 -0.53,-2.235 0.033,-0.063 9.859,-1.546 10.016,-1.72 0.154,-0.176 0.568,-2.045 0.565,-2.297 0,-0.255 -0.353,-2.396 -0.495,-2.637 -0.137,-0.242 -1.199,-1.188 -1.47,-1.229 -0.267,-0.037 -8.829,1.799 -8.899,1.719 -0.07,-0.076 -0.52,-2.436 -0.467,-2.512 0.059,-0.076 9.289,-1.287 9.363,-1.437 0.074,-0.146 -0.547,-2.62 -0.65,-2.729 -0.102,-0.108 -1.018,-0.668 -1.29,-0.745 -0.271,-0.072 -13.929,0.077 -14.186,0.157 -0.261,0.081 -3.126,1.865 -3.243,2.081 -0.115,0.22 0.041,3.737 -0.048,3.947 -0.088,0.212 -2.774,2.604 -2.928,2.855 -0.147,0.249 -0.66,1.731 -0.623,2.048 0.03,0.32 1.875,3.979 1.866,4.277 -0.013,0.305 -2.321,3.438 -2.349,3.641 -0.027,0.203 0.473,1.525 0.626,1.816 0.157,0.291 2.407,2.559 2.49,2.838 0.08,0.28 -0.065,1.423 -0.071,1.691 -0.007,0.276 -0.129,2.187 0.022,2.436 z"
         id="path157"
         style="fill:#ffffff" /><path
         d="m -4.638,23.653 c -0.15,-0.084 -0.611,-2.095 -0.593,-2.222 0.018,-0.127 1.802,-2.743 1.82,-2.876 0.024,-0.132 -0.62,-3.772 -0.602,-3.922 0.021,-0.146 1.931,-4.013 2.045,-4.089 0.113,-0.078 2.378,-0.579 2.499,-0.529 0.119,0.057 1.219,1.527 1.277,1.798 0.072,0.324 -1.213,8.931 -1.425,9.188 -0.211,0.256 -4.875,2.738 -5.021,2.652 z"
         id="path159"
         style="fill:#ffffff" /></g><g
       id="g161"><path
         d="m 27.142,-3.866 c -0.156,0.248 -3.896,2.453 -4.776,2.547 C 21.484,-1.22 7.707,-3.209 7.256,-3.331 6.802,-3.456 5.071,-4.255 4.907,-4.427 4.737,-4.6 3.369,-6.922 3.394,-7.144 3.412,-7.37 4.296,-9.102 4.462,-9.166 c 0.168,-0.065 9.437,0.775 9.52,0.706 0.082,-0.07 0.936,-1.861 0.918,-1.935 -0.025,-0.068 -10.226,-0.773 -10.463,-0.896 -0.221,-0.113 -2.09,-3.078 -2.109,-3.209 -0.018,-0.127 0.74,-3.017 0.842,-3.142 0.111,-0.121 1.774,-0.651 2.026,-0.646 0.249,0.008 9.919,2.167 10.005,2.094 0.082,-0.071 0.627,-2.148 0.596,-2.217 -0.031,-0.065 -9.813,-1.837 -9.959,-2.017 -0.15,-0.185 -0.514,-2.063 -0.501,-2.313 0.009,-0.256 0.421,-2.386 0.571,-2.623 0.145,-0.235 1.234,-1.147 1.504,-1.18 0.268,-0.027 8.773,2.057 8.848,1.979 0.074,-0.075 0.59,-2.422 0.537,-2.501 -0.055,-0.074 -9.243,-1.558 -9.314,-1.711 -0.07,-0.146 0.624,-2.604 0.729,-2.709 0.104,-0.104 1.037,-0.635 1.311,-0.704 0.275,-0.063 13.922,0.485 14.18,0.573 0.255,0.088 3.067,1.957 3.178,2.18 0.111,0.218 -0.15,3.729 -0.067,3.939 0.083,0.21 2.694,2.688 2.843,2.942 0.141,0.255 0.607,1.751 0.564,2.063 -0.043,0.318 -1.992,3.918 -1.992,4.227 0,0.301 2.22,3.497 2.241,3.698 0.019,0.207 -0.517,1.518 -0.682,1.803 -0.163,0.288 -2.48,2.486 -2.569,2.765 -0.09,0.28 0.021,1.428 0.021,1.699 0.001,0.277 0.062,2.189 -0.098,2.435 z"
         id="path163"
         style="fill:#ffffff" /><path
         d="M 3.179,-1.193 C 3.329,-1.267 3.851,-3.26 3.835,-3.388 3.816,-3.52 2.569,-6.111 2.556,-6.243 2.54,-6.38 3.289,-9.999 3.273,-10.147 c -0.015,-0.145 -1.814,-4.064 -1.925,-4.146 -0.107,-0.08 -2.361,-0.646 -2.48,-0.604 -0.12,0.054 -1.262,1.494 -1.329,1.761 -0.083,0.324 0.948,8.967 1.153,9.227 0.207,0.258 4.336,2.799 4.487,2.716 z"
         id="path165"
         style="fill:#ffffff" /></g><g
       id="g167"><path
         d="m 19.99,62.305 0,13.75 -13.432,5.757 0,-16.841 C 4.4,65.179 2.213,65.285 0,65.285 c -2.141,0 -4.255,-0.104 -6.343,-0.294 l 0,11.063 -13.434,5.757 0,-19.442 c -27.56,-8.358 -47.597,-33.721 -47.597,-63.712 0,-17.693 6.92,-33.725 18.303,-45.65 0.918,-0.053 23.449,0.668 23.449,0.668 -14.97,9.06 -25.015,25.813 -25.015,44.982 0,21.566 12.723,40.082 30.859,48.014 l 0,-22.719 9.434,-0.763 4,-0.697 0,27.888 c 2.079,0.266 4.195,0.42 6.344,0.42 2.225,0 4.411,-0.162 6.557,-0.449 l 0,-52.563 13.432,2.027 0,46.758 c 18.026,-7.982 30.65,-26.432 30.65,-47.916 0,-17.425 -8.302,-32.854 -21.054,-42.322 L 30.17,-47 l 18.897,0 c 11.354,11.925 18.308,27.989 18.308,45.657 0,29.918 -19.938,55.225 -47.385,63.648 z"
         id="path169"
         style="fill:#ffffff" /><path
         d="m 22.362,-61.388 c -2.957,2.878 -7.076,7.562 -9.582,13.296 -2.646,6.059 -3.143,13.35 -3.189,14.162 l 13.514,0.798 -6.756,-0.397 6.756,0.41 c 0.099,-1.554 0.66,-6.3 2.082,-9.553 2.671,-6.113 8.894,-11.043 8.958,-11.094 0,0 -7.099,-4.618 -11.783,-7.622 z"
         id="path171"
         style="fill:#ffffff" /><path
         d="m -34.252,-29.694 c 0.046,0.037 6.148,5.115 8.669,11.289 1.356,3.315 1.802,8.156 1.852,9.59 l 13.534,-0.473 c -0.03,-0.813 -0.349,-8.117 -2.852,-14.237 -3.173,-7.763 -9.287,-13.709 -11.709,-15.855 -2.901,3.002 -9.494,9.686 -9.494,9.686 z"
         id="path173"
         style="fill:#ffffff" /></g></symbol><use
     style="overflow:visible"
     id="use302"
     overflow="visible"
     transform="matrix(2.6714872,0,0,-2.6714872,765.45372,-455.97074)"
     y="-114.882"
     x="-115.328"
     height="229.76401"
     width="230.65601"
     xlink:href="#Euro" /></svg>